<svg width="816" height="653" viewBox="0 0 816 653" fill="none" xmlns="http://www.w3.org/2000/svg">
<path opacity="0.36" d="M739.394 642.29C744.856 642.29 750.099 640.14 753.987 636.303C757.875 632.467 760.096 627.254 760.169 621.792C761.034 565.26 765.587 481.864 659.116 458.788C572.946 440.134 624.028 286.987 391.974 296.893C225.395 303.993 269.574 444.394 140.123 456.095C53.9375 463.88 53.1868 572.881 56.4997 622.82C56.8476 628.085 59.1842 633.021 63.0358 636.627C66.8875 640.233 71.9661 642.24 77.2425 642.241L739.394 642.29Z" fill="url(#paint0_linear)"/>
<path d="M293.776 0H290.121V267.322H293.776V0Z" fill="#DFA500"/>
<path d="M556.479 0H552.824V308.383H556.479V0Z" fill="#DFA500"/>
<path d="M556.137 290.496L283.691 258.607C280.921 258.281 278.115 258.505 275.432 259.265C272.75 260.025 270.243 261.306 268.056 263.036C265.869 264.765 264.044 266.909 262.686 269.344C261.328 271.779 260.463 274.458 260.141 277.228L239.806 451.46C239.483 454.228 239.708 457.033 240.47 459.714C241.231 462.394 242.512 464.899 244.241 467.084C245.971 469.27 248.114 471.093 250.548 472.45C252.982 473.807 255.659 474.672 258.427 474.994L530.971 506.801C533.739 507.124 536.544 506.899 539.225 506.138C541.905 505.377 544.41 504.095 546.595 502.366C548.781 500.637 550.604 498.494 551.961 496.06C553.318 493.626 554.183 490.948 554.505 488.18L574.839 313.948C575.468 308.358 573.85 302.748 570.343 298.35C566.836 293.952 561.726 291.127 556.137 290.496Z" fill="#FFF7DF"/>
<path d="M572.832 331.198L574.839 313.948C575.467 308.358 573.85 302.748 570.343 298.35C566.836 293.952 561.726 291.127 556.136 290.496L283.69 258.607C280.921 258.281 278.115 258.505 275.432 259.265C272.749 260.025 270.243 261.306 268.056 263.036C265.868 264.765 264.044 266.909 262.686 269.344C261.327 271.779 260.463 274.458 260.141 277.228L258.133 294.478L572.832 331.198Z" fill="#FFBC00"/>
<path d="M302.214 399.971L336.747 339.113C337.83 337.207 339.451 335.662 341.407 334.672C343.364 333.682 345.569 333.291 347.747 333.548C350.685 333.892 353.366 335.388 355.202 337.707C357.038 340.027 357.879 342.98 357.539 345.919L350.341 407.478H350.651C351.668 407.597 352.651 407.917 353.544 408.419C354.436 408.921 355.219 409.596 355.848 410.404C356.476 411.212 356.938 412.137 357.206 413.125C357.474 414.113 357.543 415.145 357.408 416.16C357.167 418.197 356.128 420.056 354.519 421.328C352.909 422.601 350.862 423.184 348.824 422.949H348.53L347.208 434.161C347.084 435.251 346.747 436.306 346.214 437.265C345.682 438.224 344.965 439.068 344.105 439.749C343.245 440.43 342.259 440.934 341.203 441.233C340.148 441.531 339.044 441.618 337.955 441.489C336.865 441.363 335.812 441.024 334.854 440.491C333.896 439.958 333.053 439.241 332.372 438.381C331.691 437.522 331.187 436.537 330.887 435.482C330.588 434.427 330.499 433.324 330.627 432.235L331.932 421.023L307.077 418.118C306.067 418.001 305.091 417.686 304.203 417.191C303.316 416.696 302.534 416.03 301.904 415.233C301.273 414.436 300.806 413.522 300.529 412.544C300.251 411.566 300.17 410.544 300.288 409.534L300.941 403.887C301.08 402.506 301.514 401.17 302.214 399.971ZM333.875 404.524L338.33 366.351C338.34 366.322 338.343 366.292 338.341 366.261C338.339 366.231 338.331 366.201 338.317 366.174C338.304 366.147 338.285 366.122 338.262 366.102C338.239 366.082 338.212 366.067 338.183 366.058C338.154 366.048 338.124 366.044 338.093 366.046C338.063 366.048 338.033 366.057 338.006 366.07C337.978 366.084 337.954 366.103 337.934 366.126C337.914 366.149 337.899 366.176 337.889 366.204L317.473 402.206C317.392 402.353 317.348 402.517 317.344 402.685C317.341 402.853 317.379 403.019 317.455 403.168C317.53 403.318 317.641 403.447 317.778 403.544C317.915 403.641 318.074 403.703 318.24 403.724L332.748 405.356C333.007 405.385 333.266 405.316 333.475 405.161C333.684 405.007 333.827 404.779 333.875 404.524Z" fill="#FFBC00"/>
<path d="M454.626 417.792L489.176 356.935C490.257 355.031 491.876 353.488 493.829 352.498C495.783 351.508 497.984 351.116 500.159 351.37C501.615 351.538 503.023 351.991 504.303 352.704C505.584 353.417 506.711 354.375 507.62 355.524C508.53 356.673 509.204 357.991 509.604 359.4C510.004 360.81 510.122 362.285 509.951 363.74L502.77 425.299H503.08C504.089 425.415 505.064 425.728 505.951 426.222C506.838 426.715 507.618 427.379 508.248 428.175C508.877 428.972 509.343 429.884 509.618 430.861C509.894 431.838 509.974 432.859 509.853 433.867C509.738 434.876 509.424 435.852 508.931 436.74C508.438 437.627 507.774 438.409 506.978 439.04C506.182 439.67 505.27 440.138 504.293 440.415C503.316 440.693 502.294 440.775 501.285 440.656H500.975L499.67 451.868C499.412 454.065 498.292 456.069 496.557 457.44C494.822 458.811 492.613 459.437 490.416 459.179C489.326 459.056 488.271 458.718 487.312 458.186C486.353 457.653 485.509 456.936 484.828 456.076C484.147 455.216 483.643 454.23 483.344 453.175C483.046 452.119 482.959 451.015 483.088 449.926L484.394 438.714L459.522 435.744C458.513 435.627 457.536 435.311 456.648 434.816C455.761 434.321 454.979 433.656 454.349 432.859C453.718 432.062 453.251 431.148 452.974 430.17C452.697 429.192 452.615 428.169 452.733 427.16L453.402 421.513C453.559 420.204 453.976 418.939 454.626 417.792ZM486.336 422.313L490.791 384.14C490.798 384.084 490.785 384.027 490.754 383.98C490.723 383.932 490.677 383.897 490.623 383.88C490.569 383.862 490.511 383.864 490.459 383.885C490.406 383.906 490.362 383.944 490.335 383.993L469.935 419.995C469.853 420.142 469.809 420.306 469.806 420.474C469.803 420.642 469.841 420.807 469.916 420.957C469.992 421.107 470.103 421.236 470.24 421.333C470.377 421.429 470.535 421.491 470.702 421.513L485.21 423.145C485.468 423.174 485.728 423.105 485.937 422.95C486.146 422.796 486.288 422.568 486.336 422.313Z" fill="#FFBC00"/>
<path d="M386.115 364.164C388.122 346.98 398.322 338.199 414.903 340.141C431.484 342.084 439.383 352.953 437.408 370.154L430.88 426.05C428.873 443.251 418.657 452.015 402.075 450.089C385.494 448.164 377.595 437.262 379.587 420.061L386.115 364.164ZM396.347 423.112C395.45 430.799 398.501 434.096 403.871 434.732C409.24 435.369 412.961 432.839 413.859 425.152L420.631 367.2C421.529 359.513 418.493 356.2 413.124 355.58C407.755 354.96 404.018 357.473 403.136 365.144L396.347 423.112Z" fill="#FFBC00"/>
<path d="M290.251 282.679C290.124 283.802 289.666 284.863 288.936 285.726C288.205 286.589 287.235 287.216 286.148 287.527C285.061 287.839 283.906 287.82 282.829 287.475C281.753 287.129 280.803 286.472 280.1 285.586C279.398 284.7 278.974 283.626 278.882 282.499C278.79 281.372 279.035 280.243 279.586 279.255C280.136 278.268 280.968 277.465 281.974 276.951C282.981 276.436 284.118 276.231 285.241 276.363C286.741 276.539 288.111 277.302 289.05 278.486C289.989 279.67 290.421 281.177 290.251 282.679Z" fill="white"/>
<path d="M317.571 285.877C317.438 286.995 316.976 288.049 316.244 288.904C315.512 289.76 314.543 290.38 313.459 290.685C312.376 290.99 311.226 290.967 310.155 290.619C309.084 290.271 308.14 289.614 307.443 288.729C306.746 287.845 306.326 286.774 306.238 285.652C306.149 284.53 306.394 283.406 306.944 282.423C307.493 281.441 308.321 280.643 309.324 280.13C310.327 279.618 311.459 279.414 312.577 279.545C313.321 279.632 314.041 279.865 314.694 280.231C315.348 280.596 315.924 281.087 316.388 281.675C316.852 282.264 317.195 282.937 317.398 283.659C317.601 284.38 317.66 285.134 317.571 285.877Z" fill="white"/>
<path d="M345.984 289.174C345.854 290.293 345.394 291.349 344.664 292.207C343.934 293.065 342.966 293.687 341.882 293.994C340.798 294.302 339.647 294.281 338.575 293.935C337.503 293.588 336.558 292.932 335.859 292.048C335.16 291.164 334.739 290.093 334.649 288.97C334.559 287.847 334.804 286.722 335.354 285.738C335.903 284.755 336.732 283.956 337.735 283.443C338.738 282.931 339.871 282.727 340.99 282.858C342.49 283.034 343.858 283.798 344.794 284.982C345.731 286.167 346.159 287.674 345.984 289.174Z" fill="white"/>
<path d="M233.325 582.772C233.7 556.374 234.006 528.083 233.729 520.594C233.511 509.68 234.512 498.776 236.713 488.084L270.327 484.55L270.32 484.599L270.047 486.537C269.812 488.209 269.475 490.604 269.068 493.497C268.255 499.284 267.164 507.062 266.053 515.031C263.832 530.96 261.529 547.669 261.21 550.715C261.054 552.2 259.876 558.108 258.183 566.188C256.493 574.247 254.3 584.425 252.126 594.415C249.953 604.404 247.799 614.204 246.189 621.506C245.384 625.158 244.715 628.184 244.247 630.298C244.013 631.355 243.829 632.184 243.704 632.749L243.599 633.222H232.514L232.525 632.625C232.538 631.902 232.556 630.84 232.58 629.483C232.628 626.769 232.695 622.875 232.774 618.156C232.932 608.718 233.137 595.978 233.325 582.772Z" fill="#DFA500" stroke="black"/>
<path d="M244.852 483.667L281.083 484.492L281.107 484.736L281.301 486.673C281.469 488.346 281.709 490.742 282.001 493.636C282.583 499.424 283.368 507.205 284.179 515.175C285.8 531.108 287.527 547.821 287.944 550.868C288.148 552.355 288.441 558.264 288.766 566.343C289.089 574.403 289.443 584.581 289.77 594.57C290.097 604.56 290.399 614.359 290.618 621.662C290.728 625.313 290.817 628.34 290.879 630.454C290.91 631.511 290.934 632.34 290.951 632.904L290.961 633.255H279.878L279.707 632.518C279.537 631.783 279.287 630.704 278.968 629.326C278.328 626.568 277.41 622.613 276.293 617.82C274.059 608.233 271.032 595.295 267.857 581.891C261.512 555.096 254.57 526.396 252.213 518.907C249.873 511.472 248.012 502.52 246.737 495.417C246.099 491.868 245.608 488.785 245.277 486.589C245.111 485.491 244.985 484.615 244.901 484.014C244.883 483.886 244.866 483.77 244.852 483.667Z" fill="#FFBC00" stroke="black"/>
<path d="M303.307 641.594H280.959V634.222H290.347C295.18 634.9 300.501 637.904 303.744 640.109L303.744 640.109L303.752 640.114C303.897 640.209 304.008 640.348 304.068 640.512C304.128 640.675 304.133 640.853 304.083 641.02C304.034 641.186 303.931 641.332 303.792 641.436C303.652 641.539 303.483 641.595 303.309 641.594H303.307Z" fill="#2F2F39" stroke="black"/>
<path d="M255.466 641.594H233.125V634.224L242.528 634.271C247.37 634.948 252.602 637.943 255.934 640.152C256.063 640.252 256.159 640.388 256.208 640.544L256.685 640.391L256.208 640.544C256.259 640.703 256.259 640.875 256.208 641.034C256.157 641.194 256.058 641.333 255.924 641.434C255.791 641.533 255.632 641.589 255.466 641.594Z" fill="#2F2F39" stroke="black"/>
<path d="M273.801 385.576C273.801 385.576 281.667 373.646 272.642 372.52C265.722 371.623 262.85 373.679 262.85 373.679C262.85 373.679 254.869 372.814 250.512 376.584C247.525 379.179 236.558 399.269 254.298 406.531C272.038 413.794 268.252 395.107 268.252 395.107L273.801 385.576Z" fill="#FFBC00"/>
<path d="M272.61 372.736L272.619 372.737L272.628 372.737C273.281 372.772 273.92 372.945 274.502 373.244C274.882 373.44 275.233 373.686 275.544 373.976C273.718 373.752 271.017 373.57 268.398 374.095C265.485 374.679 262.639 376.148 261.24 379.436C261.214 379.428 261.187 379.419 261.158 379.41C260.96 379.348 260.676 379.266 260.327 379.186C259.631 379.027 258.669 378.875 257.615 378.909C255.501 378.976 252.999 379.794 251.559 382.792C250.842 384.285 250.435 386.68 250.479 389.339C250.524 392.005 251.023 394.967 252.144 397.602C253.266 400.238 255.018 402.562 257.577 403.92C260.035 405.225 263.204 405.623 267.212 404.595C266.486 406.028 265.326 407.184 263.498 407.679C261.457 408.232 258.539 407.971 254.393 406.267L254.393 406.267C250.007 404.472 247.417 401.894 246.028 399.012C244.636 396.124 244.436 392.905 244.88 389.81C245.324 386.715 246.41 383.76 247.573 381.415C248.74 379.061 249.967 377.356 250.676 376.74C252.795 374.906 255.817 374.187 258.34 373.934C259.597 373.808 260.72 373.798 261.528 373.82C261.932 373.831 262.257 373.85 262.48 373.866C262.592 373.874 262.678 373.881 262.736 373.887C262.765 373.889 262.787 373.891 262.802 373.893L262.818 373.894L262.822 373.895L262.823 373.895L262.823 373.895L262.823 373.895L262.918 373.905L262.995 373.85L262.995 373.85L262.995 373.85L262.995 373.85L262.995 373.85L262.999 373.847C263.004 373.844 263.011 373.839 263.02 373.833C263.04 373.82 263.071 373.8 263.114 373.775C263.2 373.724 263.332 373.651 263.514 373.565C263.877 373.393 264.437 373.17 265.212 372.973C266.763 372.579 269.179 372.291 272.61 372.736Z" fill="#DFA400" stroke="black" stroke-width="0.5"/>
<path d="M262.397 391.739L262.397 391.739L262.397 391.739L262.398 391.739C262.398 391.739 262.398 391.739 262.398 391.739L262.575 391.918L262.825 391.881C266.899 391.28 270.673 389.409 273.613 386.544C274.834 390.092 275.521 393.803 275.651 397.556L275.651 397.559C275.781 400.827 273.875 403.308 271.853 405.006C270.847 405.851 269.829 406.486 269.062 406.91C268.68 407.122 268.361 407.28 268.139 407.385C268.028 407.437 267.942 407.476 267.884 407.502C267.855 407.514 267.833 407.524 267.819 407.53L267.803 407.536L267.8 407.538L267.8 407.538L267.8 407.538L267.8 407.538L267.49 407.665V408V412.119H254.831V407.005C257.692 406.932 259.361 405.035 260.292 403.204C260.786 402.233 261.088 401.259 261.265 400.531C261.354 400.166 261.413 399.86 261.45 399.644C261.468 399.536 261.481 399.45 261.489 399.39C261.494 399.361 261.497 399.337 261.499 399.321L261.501 399.302L261.502 399.296L261.502 399.294L261.502 399.293C261.502 399.293 261.502 399.293 261.005 399.236L261.502 399.293L261.56 398.79L261.056 398.739C259.919 398.624 259.002 397.513 258.586 395.948C258.174 394.399 258.34 392.687 259.088 391.686C259.466 391.181 259.843 390.967 260.175 390.888C260.515 390.808 260.866 390.857 261.203 390.981C261.541 391.104 261.842 391.294 262.063 391.459C262.173 391.54 262.259 391.613 262.317 391.665C262.346 391.69 262.367 391.71 262.381 391.723L262.395 391.737L262.397 391.739Z" fill="white" stroke="black"/>
<path opacity="0.16" d="M264.841 409.909C266.195 410.481 265.967 411.329 266.032 412.619H267.991V408C267.991 408 264.727 409.061 259.831 406.368C261.324 407.781 263.011 408.973 264.841 409.909Z" fill="black"/>
<path d="M267.254 380.373C267.267 380.378 267.28 380.383 267.293 380.388L264.881 384.864C263.469 384.955 262.054 384.718 260.748 384.17C260.729 384.15 260.714 384.125 260.705 384.098C260.693 384.063 260.692 384.024 260.702 383.988C260.711 383.952 260.732 383.92 260.76 383.895C260.788 383.87 260.823 383.854 260.86 383.849L260.86 383.849L260.865 383.848L262.497 383.587L263.147 383.483L262.592 383.13C261.648 382.527 260.861 381.945 260.376 381.356C259.898 380.775 259.74 380.225 259.965 379.645C260.114 379.266 260.564 379.052 261.331 379.019C262.078 378.986 263.014 379.134 263.945 379.353C264.872 379.571 265.774 379.855 266.447 380.085C266.783 380.199 267.061 380.301 267.254 380.373Z" fill="white" stroke="black" stroke-width="0.5"/>
<path d="M317.943 398.398L317.942 398.398L317.951 398.404C318.181 398.567 318.373 398.776 318.516 399.019C318.658 399.262 318.747 399.532 318.776 399.812C318.806 400.092 318.776 400.375 318.687 400.642C318.599 400.909 318.455 401.155 318.264 401.362L318.255 401.371L318.247 401.381C307.74 414.007 295.909 425.472 282.959 435.578L282.764 435.73L282.766 435.978L283.399 495.011C276.739 496.418 267.105 496.631 258.112 496.395C249.113 496.159 240.803 495.475 236.851 495.108C236.85 495.108 236.85 495.108 236.849 495.108L234.872 494.909V494.864L234.785 494.737L232.06 490.739L232.059 490.738L207.602 454.781C207.711 454.612 207.868 454.367 208.069 454.056C208.485 453.41 209.09 452.477 209.843 451.326C211.349 449.023 213.446 445.85 215.811 442.367C220.547 435.395 226.342 427.209 230.62 422.281L230.62 422.281L230.627 422.274C233.229 419.152 236.52 416.677 240.241 415.043C243.962 413.409 248.012 412.66 252.071 412.857L252.082 412.857L252.092 412.857L269.044 412.955C269.044 412.955 269.045 412.955 269.046 412.955C270.433 412.977 271.808 412.695 273.075 412.128L273.078 412.127C275.844 410.862 281.322 408.356 286.272 406.023C288.747 404.856 291.092 403.732 292.902 402.827C293.807 402.374 294.581 401.975 295.172 401.652C295.74 401.341 296.19 401.074 296.404 400.888C296.568 400.747 296.678 400.548 296.682 400.311C296.685 400.096 296.601 399.91 296.513 399.769C296.338 399.491 296.029 399.21 295.668 398.936C294.928 398.374 293.77 397.696 292.351 396.951C289.504 395.456 285.51 393.643 281.459 391.894C277.406 390.144 273.285 388.452 270.177 387.198C268.624 386.571 267.323 386.053 266.411 385.692C266.042 385.546 265.736 385.426 265.503 385.334L268.086 380.612C268.103 380.616 268.12 380.62 268.137 380.624C268.41 380.684 268.811 380.774 269.328 380.892C270.361 381.129 271.853 381.478 273.685 381.928C277.35 382.828 282.377 384.132 287.824 385.748C298.747 388.988 311.267 393.455 317.943 398.398ZM235.108 479.265L236.062 479.093L236.421 474.1L236.421 474.099L238.705 442.88L238.813 441.413L237.834 442.51L225.137 456.741L224.919 456.985L225.055 457.282L232.709 474.01L232.709 474.01L235.108 479.265Z" fill="#263238" stroke="black"/>
<path d="M232.515 491.393L233.881 476.381L235.492 479.811L234.416 494.106L232.515 491.393Z" fill="#263238" stroke="black"/>
<g style="mix-blend-mode:multiply">
<path d="M277.538 433.72C275.253 435.352 275.906 450.04 275.269 459.261C274.323 474.651 273.409 487.968 274.094 496.569C277.268 496.395 280.426 495.997 283.544 495.377L283.903 495.296L283.266 435.858C296.245 425.73 308.101 414.241 318.632 401.586C318.859 401.328 319.031 401.025 319.135 400.697C319.239 400.369 319.274 400.023 319.237 399.68C319.2 399.338 319.093 399.007 318.921 398.709C318.749 398.41 318.517 398.151 318.24 397.947C305.771 411.066 292.149 423.039 277.538 433.72Z" fill="#F98D2B" fill-opacity="0.3"/>
</g>
<path opacity="0.12" d="M288.44 550.784C287.836 546.394 284.523 513.558 282.711 495.606L274.094 496.569C274.094 496.569 286.661 599.923 287.493 633.738H291.475C291.475 633.738 289.272 556.855 288.44 550.784Z" fill="black"/>
<path d="M165.729 604.64C165.729 604.64 162.025 601.196 164.505 588.107C166.986 575.019 173.286 562.436 170.185 548.221C167.084 534.007 142.898 498.201 142.816 495.818C142.735 493.435 135.342 537.483 147.859 554.88C160.376 572.277 161.894 578.267 161.339 587.389C160.784 596.512 161.47 603.873 162.841 605.994L165.729 604.64Z" fill="#9FCD00"/>
<path d="M163.429 578.316C161.976 584.158 161.095 598.797 163.429 602.306C163.641 602.632 163.951 602.453 164.342 601.833C163.624 599.417 163.167 595.174 164.506 588.108C166.986 575.052 173.286 562.436 170.185 548.221C167.084 534.007 142.898 498.201 142.816 495.818C142.816 495.818 146.472 525.651 158.745 546.198C167.541 560.902 164.832 572.473 163.429 578.316Z" fill="#9FCD00"/>
<path d="M170.136 603.742C170.136 603.742 163.02 585.986 175.032 570.613C187.043 555.239 206.35 535.492 206.742 527.675C206.742 527.675 211.638 564.803 196.003 575.313C180.369 585.823 169.369 587.52 172.078 603.677L170.136 603.742Z" fill="#9FCD00"/>
<path d="M187.076 567.936C169.581 580.666 168.145 595.337 170.854 602.126C170.945 602.378 171.097 602.604 171.296 602.783C171.496 602.963 171.736 603.09 171.996 603.155C169.646 587.553 180.564 585.774 196.052 575.411C211.54 565.047 206.791 527.772 206.791 527.772C206.791 527.772 204.555 555.108 187.076 567.936Z" fill="#9FCD00"/>
<path d="M158.434 604.134C159.828 597.704 160.192 591.094 159.511 584.55C158.304 574.464 147.696 568.719 137.789 557.997C132.681 552.481 131.18 523.317 134.33 520.608C134.33 520.608 116.851 541.824 119.544 557.328C122.237 572.832 150.78 582.934 153.408 590.425C154.98 594.859 155.797 599.527 155.823 604.232L158.434 604.134Z" fill="#9FCD00"/>
<path d="M128.422 528.948C122.645 544.598 128.569 563.562 147.778 575.345C161.911 584.011 157.407 602.045 157.407 602.045L159.724 594.929C159.966 591.481 159.895 588.018 159.512 584.582C158.304 574.464 147.696 568.719 137.79 557.997C132.894 552.677 131.262 525.357 134.02 521C132.021 523.553 130.153 526.205 128.422 528.948Z" fill="#9FCD00"/>
<path d="M134.02 521L134.33 520.608C134.211 520.726 134.107 520.857 134.02 521Z" fill="#49B4D6"/>
<path d="M173.792 602.959C173.792 602.959 177.888 587.748 188.039 585.708C198.19 583.668 209.826 568.67 210.446 565.733C210.528 565.733 208.733 594.048 173.792 602.959Z" fill="#9FCD00"/>
<path d="M187.452 590.784C181.25 593.885 178.655 598.063 177.66 601.865C208.766 591.861 210.3 565.782 210.3 565.782C209.914 566.851 209.363 567.853 208.668 568.752C205.812 574.056 198.435 585.252 187.452 590.784Z" fill="#9FCD00"/>
<path d="M195.742 597.312H142.702L149.002 636.97C149.231 638.427 149.974 639.754 151.097 640.712C152.219 641.669 153.646 642.194 155.122 642.192H183.323C184.798 642.194 186.225 641.669 187.348 640.712C188.47 639.754 189.213 638.427 189.443 636.97L195.742 597.312Z" fill="#FFBC00"/>
<path d="M561.506 526.728H321.831V575.46H561.506V526.728Z" fill="#FFBC00"/>
<path d="M342.671 526.728H364.556L358.681 538.56H336.796L342.671 526.728Z" fill="#F77E2D"/>
<path d="M391.958 526.728H413.826L407.967 538.56H386.099L391.958 526.728Z" fill="#F77E2D"/>
<path d="M441.244 526.728H463.112L457.254 538.56H435.385L441.244 526.728Z" fill="#F77E2D"/>
<path d="M490.53 526.728H512.399L506.524 538.56H484.671L490.53 526.728Z" fill="#F77E2D"/>
<path d="M561.506 526.728V527.054L555.81 538.56H533.958L539.816 526.728H561.506Z" fill="#F77E2D"/>
<path d="M368.554 575.46H351.663V642.094H368.554V575.46Z" fill="#DFA500"/>
<path d="M532.995 575.46H516.104V642.094H532.995V575.46Z" fill="#DFA500"/>
<path d="M368.554 519.107H351.663V526.679H368.554V519.107Z" fill="#DFA400"/>
<path d="M532.995 519.107H516.104V526.679H532.995V519.107Z" fill="#DFA400"/>
<path d="M364.556 526.728L340.37 575.46H321.831V568.736L342.671 526.728H364.556Z" fill="#FDF1FF"/>
<path d="M391.957 526.728L367.788 575.46H389.656L413.826 526.728H391.957Z" fill="#FDF1FF"/>
<path d="M463.112 526.728L438.943 575.46H417.074L441.244 526.728H463.112Z" fill="#FDF1FF"/>
<path d="M512.399 526.728L488.229 575.46H466.36L490.53 526.728H512.399Z" fill="#FDF1FF"/>
<path d="M539.816 526.728L515.646 575.46H537.515L561.506 527.054L539.816 526.728Z" fill="#FDF1FF"/>
<path d="M362.069 523.43C370.28 522.094 375.854 514.354 374.518 506.143C373.182 497.932 365.443 492.358 357.232 493.694C349.02 495.03 343.447 502.769 344.783 510.98C346.118 519.192 353.858 524.765 362.069 523.43Z" fill="#FFBC00"/>
<path d="M366.498 508.531C366.495 507.183 366.092 505.865 365.34 504.746C364.589 503.626 363.522 502.754 362.276 502.24C361.029 501.727 359.658 501.594 358.335 501.859C357.013 502.124 355.799 502.775 354.847 503.73C353.894 504.684 353.246 505.9 352.984 507.223C352.722 508.545 352.859 509.916 353.375 511.162C353.892 512.407 354.766 513.472 355.888 514.221C357.009 514.97 358.328 515.369 359.676 515.369C360.573 515.369 361.462 515.192 362.291 514.848C363.119 514.505 363.872 514.001 364.506 513.365C365.139 512.73 365.642 511.976 365.983 511.147C366.325 510.317 366.5 509.428 366.498 508.531Z" fill="#FDF1FF"/>
<path d="M526.836 523.444C535.047 522.108 540.621 514.369 539.285 506.157C537.949 497.946 530.21 492.372 521.998 493.708C513.787 495.044 508.213 502.784 509.549 510.995C510.885 519.206 518.624 524.78 526.836 523.444Z" fill="#FFBC00"/>
<path d="M531.265 508.531C531.262 507.183 530.859 505.865 530.107 504.746C529.356 503.626 528.289 502.754 527.043 502.24C525.796 501.727 524.425 501.594 523.102 501.859C521.78 502.124 520.566 502.775 519.614 503.73C518.661 504.684 518.013 505.9 517.751 507.223C517.49 508.545 517.626 509.916 518.142 511.162C518.659 512.407 519.534 513.472 520.655 514.221C521.777 514.97 523.095 515.369 524.443 515.369C525.341 515.369 526.229 515.192 527.058 514.848C527.886 514.505 528.639 514.001 529.273 513.365C529.906 512.73 530.409 511.976 530.75 511.147C531.092 510.317 531.267 509.428 531.265 508.531Z" fill="#FDF1FF"/>
<path d="M652.326 636.921H575.981L587.667 608.622L592.35 597.198L593.656 594.081L595.761 588.973L596.186 587.944L600.886 576.52L601.751 574.448L610.074 554.244C610.405 553.433 610.969 552.739 611.696 552.251C612.423 551.762 613.278 551.501 614.154 551.501C615.029 551.501 615.885 551.762 616.612 552.251C617.339 552.739 617.903 553.433 618.234 554.244L626.557 574.448L627.422 576.52L632.106 587.944L632.547 588.973L634.652 594.081L635.941 597.198L640.641 608.622L652.326 636.921Z" fill="#FDF1FF"/>
<path d="M657.304 629.675H569.878V642.029H657.304V629.675Z" fill="#FFBC00"/>
<path d="M632.106 587.928H596.186L600.886 576.504H627.422L632.106 587.928Z" fill="#FFBC00"/>
<path d="M640.641 608.605V608.622H587.667V608.605L592.35 597.181H635.941L640.641 608.605Z" fill="#FFBC00"/>
<path opacity="0.36" d="M165.746 359.383C168.513 359.411 171.197 358.434 173.298 356.633C175.399 354.832 176.775 352.33 177.17 349.591C177.315 348.564 177.386 347.527 177.382 346.49C177.382 340.43 174.975 334.619 170.69 330.334C166.405 326.049 160.594 323.642 154.534 323.642C154.028 323.642 153.506 323.642 153 323.642C152.442 317.446 149.519 311.703 144.839 307.605C140.159 303.507 134.081 301.369 127.866 301.633C121.651 301.898 115.776 304.545 111.461 309.026C107.146 313.507 104.723 319.478 104.693 325.698C104.693 326.286 104.693 326.873 104.693 327.461C101.141 325.484 97.1476 324.435 93.0826 324.408C89.0175 324.382 85.0113 325.38 81.4337 327.31C77.8561 329.241 74.8224 332.041 72.6124 335.453C70.4024 338.865 69.0875 342.779 68.7889 346.833C68.7889 346.931 68.7889 347.029 68.7889 347.126C68.7091 348.694 68.9494 350.261 69.4953 351.733C70.0411 353.204 70.8811 354.549 71.9638 355.685C73.0465 356.821 74.3494 357.725 75.7929 358.341C77.2364 358.957 78.7903 359.273 80.3598 359.269L165.746 359.383Z" fill="url(#paint1_linear)"/>
<path opacity="0.36" d="M709.414 377.269C727.366 377.269 728.427 350.162 710.442 349.281H708.957C705.832 349.276 702.725 349.766 699.753 350.733C698.544 343.426 694.751 336.795 689.064 332.049C683.378 327.303 676.176 324.756 668.77 324.873C661.364 324.989 654.247 327.761 648.713 332.684C643.178 337.607 639.596 344.354 638.618 351.696C632.557 348.818 625.68 348.154 619.181 349.819C603.432 353.867 606.745 377.302 623 377.302L709.414 377.269Z" fill="url(#paint2_linear)"/>
<path opacity="0.36" d="M493.093 243.69C511.045 243.69 512.089 216.599 494.104 215.718H492.619C489.495 215.716 486.39 216.2 483.415 217.154C482.216 209.839 478.427 203.199 472.739 198.446C467.052 193.692 459.844 191.142 452.433 191.261C445.021 191.38 437.9 194.159 432.367 199.092C426.835 204.026 423.26 210.784 422.296 218.133C418.463 216.289 414.262 215.335 410.007 215.342C407.602 215.34 405.206 215.642 402.876 216.24C387.127 220.304 390.44 243.723 406.694 243.723L493.093 243.69Z" fill="url(#paint3_linear)"/>
<defs>
<linearGradient id="paint0_linear" x1="55.5547" y1="296.433" x2="616.907" y2="801.744" gradientUnits="userSpaceOnUse">
<stop stop-color="#FFBA00"/>
<stop offset="0.474707" stop-color="#FFC217"/>
<stop offset="1" stop-color="#FFB900"/>
</linearGradient>
<linearGradient id="paint1_linear" x1="68.7739" y1="301.611" x2="161.455" y2="378.566" gradientUnits="userSpaceOnUse">
<stop stop-color="#FFBA00"/>
<stop offset="0.474707" stop-color="#FFC217"/>
<stop offset="1" stop-color="#FFB900"/>
</linearGradient>
<linearGradient id="paint2_linear" x1="608.941" y1="324.869" x2="694.459" y2="407.332" gradientUnits="userSpaceOnUse">
<stop stop-color="#FFBA00"/>
<stop offset="0.474707" stop-color="#FFC217"/>
<stop offset="1" stop-color="#FFB900"/>
</linearGradient>
<linearGradient id="paint3_linear" x1="392.636" y1="191.257" x2="478.204" y2="273.699" gradientUnits="userSpaceOnUse">
<stop stop-color="#FFBA00"/>
<stop offset="0.474707" stop-color="#FFC217"/>
<stop offset="1" stop-color="#FFB900"/>
</linearGradient>
</defs>
</svg>
