<svg width="80" height="80" viewBox="0 0 80 80" fill="none" xmlns="http://www.w3.org/2000/svg">
<path fill-rule="evenodd" clip-rule="evenodd" d="M40 78C60.9868 78 78 60.9868 78 40C78 19.0132 60.9868 2 40 2C19.0132 2 2 19.0132 2 40C2 60.9868 19.0132 78 40 78ZM40 80C62.0914 80 80 62.0914 80 40C80 17.9086 62.0914 0 40 0C17.9086 0 0 17.9086 0 40C0 62.0914 17.9086 80 40 80ZM54.7075 30.9923H54.2596V26.6423C54.2596 24.8268 52.7826 23.3497 50.9671 23.3497H27.086C24.4507 23.3497 22.2779 25.3654 22.0271 27.9359C22.0247 27.9475 22.0224 27.9518 22.0204 27.9561C21.999 28.0016 21.999 28.057 22.0008 36.652C22.0015 40.0825 22.0024 44.8733 22.0024 51.5667C22.0024 54.3698 24.2829 56.6502 27.086 56.6502H54.7075C56.523 56.6502 58 55.1732 58 53.3576V34.2848C58.0001 32.4694 56.5231 30.9923 54.7075 30.9923ZM27.086 25.6114H50.9671C51.5356 25.6114 51.998 26.0739 51.998 26.6424V30.9923H27.086C25.5741 30.9923 24.3364 29.797 24.2674 28.3019C24.3363 26.8066 25.574 25.6114 27.086 25.6114ZM54.7075 54.3886H27.086C25.53 54.3886 24.2641 53.1227 24.2641 51.5667V32.3969C25.072 32.938 26.0427 33.2538 27.086 33.2538H54.7075C55.276 33.2538 55.7385 33.7163 55.7385 34.2848V38.8692H47.2288C44.3307 38.8692 41.9729 41.2269 41.9729 44.1251C41.9729 47.0232 44.3307 49.3809 47.2288 49.3809H55.7385V53.3576C55.7385 53.9261 55.276 54.3886 54.7075 54.3886ZM55.7385 47.1194H47.2288C45.5777 47.1194 44.2344 45.7762 44.2344 44.1251C44.2344 42.474 45.5777 41.1308 47.2288 41.1308H55.7385V47.1194ZM49.2849 44.1251C49.2849 45.0302 48.5511 45.7639 47.6461 45.7639C46.741 45.7639 46.0073 45.0302 46.0073 44.1251C46.0073 43.2201 46.741 42.4863 47.6461 42.4863C48.5511 42.4863 49.2849 43.2201 49.2849 44.1251Z" fill="#FFBC00"/>
</svg>
