<svg width="80" height="80" viewBox="0 0 80 80" fill="none" xmlns="http://www.w3.org/2000/svg">
<path fill-rule="evenodd" clip-rule="evenodd" d="M78 40C78 60.9868 60.9868 78 40 78C19.0132 78 2 60.9868 2 40C2 19.0132 19.0132 2 40 2C60.9868 2 78 19.0132 78 40ZM80 40C80 62.0914 62.0914 80 40 80C17.9086 80 0 62.0914 0 40C0 17.9086 17.9086 0 40 0C62.0914 0 80 17.9086 80 40ZM39.9282 39.0127C36.3836 39.0035 33.4784 36.0627 33.4864 32.4918C33.4945 28.8917 36.4178 25.9973 40.0329 26.0103C43.5849 26.0231 46.4928 28.934 46.4892 32.4732C46.4855 36.1297 43.5835 39.0221 39.9282 39.0127ZM53.957 53.6991C53.9663 53.7858 53.976 53.8756 53.9871 53.97H25.9222C25.9857 53.685 26.0407 53.4009 26.0952 53.1192C26.2118 52.5173 26.3261 51.9266 26.5167 51.3615C28.1224 46.601 31.4553 43.6083 36.2621 42.3796C41.3102 41.0892 45.9027 42.1745 49.8245 45.6623C52.0769 47.6655 53.4211 50.209 53.8948 53.1964C53.9206 53.3587 53.9381 53.5223 53.957 53.6991ZM31.7971 30.1992C30.7394 33.8638 32.2964 38.2452 36.4162 40.257C34.795 40.6247 33.2872 41.1637 31.8943 41.9763C27.414 44.5902 24.6466 48.3739 24.0208 53.5991C23.8507 55.0197 24.7358 55.9982 26.1727 55.9981C30.126 55.9976 34.0794 55.9981 38.0327 55.9986C40.0679 55.9988 42.1031 55.9991 44.1383 55.9992C44.9409 55.9992 45.7436 55.9994 46.5462 55.9996C49.0015 56.0001 51.4568 56.0007 53.9121 55.9971C55.1299 55.9953 56.1362 54.9997 55.9849 53.8777C55.848 52.8621 55.7057 51.8287 55.3941 50.8583C53.8289 45.9857 50.5127 42.7648 45.7935 40.9238C45.3104 40.7353 44.811 40.5882 44.3103 40.4408C44.0786 40.3725 43.8465 40.3042 43.6157 40.2316C47.6959 38.274 49.2937 33.7618 48.1272 29.9965C47.0274 26.4459 43.6685 23.9808 39.9187 24.0001C36.1674 24.0194 32.8515 26.546 31.7971 30.1992Z" fill="#FFBC00"/>
</svg>
