<svg width="80" height="80" viewBox="0 0 80 80" fill="none" xmlns="http://www.w3.org/2000/svg">
<path fill-rule="evenodd" clip-rule="evenodd" d="M78 40C78 60.9868 60.9868 78 40 78C19.0132 78 2 60.9868 2 40C2 19.0132 19.0132 2 40 2C60.9868 2 78 19.0132 78 40ZM80 40C80 62.0914 62.0914 80 40 80C17.9086 80 0 62.0914 0 40C0 17.9086 17.9086 0 40 0C62.0914 0 80 17.9086 80 40ZM55.1854 49.4651C54.6991 49.4651 54.2111 49.351 53.7648 49.1194V58H29.3313C27.3409 58 25.7216 56.3807 25.7216 54.3903V25.6097C25.7216 23.6193 27.3409 22 29.3313 22H53.7648V41.1475L57.1744 44.0086C57.8068 44.5392 58.1947 45.2843 58.2666 46.1066C58.3386 46.929 58.0861 47.7301 57.5554 48.3625C56.9449 49.0899 56.0681 49.4651 55.1854 49.4651ZM48.5657 39.5383C48.2088 40.0908 47.7847 40.5959 47.3054 41.0425L51.5524 44.6061L52.8137 43.1029L48.5657 39.5383ZM36.1377 35.2649C36.1377 38.4569 38.7346 41.0537 41.9265 41.0537C45.1184 41.0537 47.7152 38.4568 47.7152 35.2649C47.7152 32.073 45.1184 29.4761 41.9265 29.4761C38.7346 29.4761 36.1377 32.0729 36.1377 35.2649ZM30.0881 24.1093H29.3313C28.5041 24.1093 27.831 24.7824 27.8309 25.6097V51.1085C28.2882 50.8986 28.7961 50.7806 29.3313 50.7806H30.0881V24.1093ZM29.3313 55.8907H51.6555V52.8899H29.3313C28.504 52.8899 27.8309 53.563 27.8309 54.3903C27.8309 55.2176 28.504 55.8907 29.3313 55.8907ZM32.1974 24.1093V50.7806H51.6555V47.4462L45.5195 42.2974C44.441 42.8506 43.2196 43.163 41.9265 43.163C37.5715 43.163 34.0284 39.6199 34.0284 35.2649C34.0284 30.9099 37.5715 27.3668 41.9265 27.3668C46.2815 27.3668 49.8245 30.9099 49.8245 35.2649C49.8245 36.0615 49.7055 36.8308 49.4851 37.5564L51.6555 39.3776V24.1093H32.1974ZM54.5573 47.1276C54.9718 47.4754 55.592 47.4211 55.9396 47.0066C56.108 46.8059 56.1883 46.5515 56.1654 46.2905C56.1425 46.0294 56.0194 45.7928 55.8186 45.6244L54.4295 44.4587L53.1681 45.9619L54.5573 47.1276Z" fill="#FFBC00"/>
</svg>
