<svg width="608" height="550" viewBox="0 0 608 550" fill="none" xmlns="http://www.w3.org/2000/svg">
<path opacity="0.24" d="M109.554 152.997C127.433 128.059 134.97 97.5078 146.755 69.2018C158.541 40.8958 177.302 12.5096 206.486 3.20792C235.589 -6.09377 267.579 6.09465 292.673 23.5754C317.768 41.0561 339.175 63.749 365.392 79.4657C394.335 96.7861 427.848 104.725 460.639 112.663C493.43 120.602 526.863 129.021 555.325 147.304C583.787 165.506 606.797 195.496 608 229.255C608 360.04 540.48 423.439 524.538 441.532C484.535 486.941 427.077 524.24 365.392 542.539C279.107 568.227 130.93 520.823 74.3578 467.57C43.0095 438.062 16.9527 401.657 5.64813 360.04C-5.57632 318.423 -0.525316 271.353 24.89 236.552C48.3812 204.317 86.384 185.232 109.554 152.997Z" fill="url(#paint0_linear)"/>
<mask id="mask0" mask-type="alpha" maskUnits="userSpaceOnUse" x="0" y="0" width="608" height="550">
<path opacity="0.16" d="M109.554 152.997C127.433 128.059 134.97 97.5078 146.755 69.2018C158.541 40.8958 177.302 12.5096 206.486 3.20792C235.589 -6.09377 267.579 6.09465 292.673 23.5754C317.768 41.0561 339.175 63.749 365.392 79.4657C394.335 96.7861 427.848 104.725 460.639 112.663C493.43 120.602 526.863 129.021 555.325 147.304C583.787 165.506 606.797 195.496 608 229.255C608 360.04 540.48 423.439 524.538 441.532C484.535 486.941 427.077 524.24 365.392 542.539C279.107 568.227 130.93 520.823 74.3578 467.57C43.0095 438.062 16.9527 401.657 5.64813 360.04C-5.57632 318.423 -0.525316 271.353 24.89 236.552C48.3812 204.317 86.384 185.232 109.554 152.997Z" fill="url(#paint1_linear)"/>
</mask>
<g mask="url(#mask0)">
<path d="M325.02 423.447C325.123 423.464 323.812 417.014 323.691 416.618C322.207 412.031 316.618 404.029 311.218 404.029C307.318 404.029 304.679 407.582 305.058 411.306C305.455 415.1 308.871 418.342 311.942 420.205C315.582 422.412 325.02 423.447 325.02 423.447Z" fill="#9FCD00"/>
<path d="M251.042 457.884C251.144 457.86 247.4 452.447 247.133 452.13C243.964 448.497 235.676 443.341 230.712 445.466C227.127 447.001 226.099 451.306 227.914 454.58C229.772 457.912 234.188 459.548 237.744 460.051C241.959 460.647 251.042 457.884 251.042 457.884Z" fill="#9FCD00"/>
<path d="M334.557 379.394C329.468 381.222 326.932 390.637 327.087 395.466C327.104 395.88 328.07 402.381 328.157 402.329C328.157 402.329 328.243 402.295 328.26 402.277C327.846 403.76 327.432 405.364 327.001 407.106C326.242 410.348 325.396 414.021 324.758 418.073C324.102 422.126 323.516 426.54 323.326 431.265C323.119 435.99 323.136 440.974 323.826 446.095C323.826 446.147 323.843 446.216 323.861 446.268C323.188 444.836 321.186 440.87 321.014 440.594C318.357 436.559 310.869 430.317 305.659 431.748C301.898 432.783 300.294 436.904 301.639 440.387C303.019 443.94 307.16 446.164 310.645 447.147C314.561 448.268 323.291 446.94 323.981 446.837C324.689 451.717 325.793 456.666 327.19 461.598C327.984 464.426 328.881 467.254 329.813 470.065C329.192 468.841 328.64 467.754 328.536 467.599C325.879 463.564 318.392 457.321 313.181 458.753C309.42 459.787 307.816 463.909 309.161 467.392C310.542 470.945 314.682 473.169 318.167 474.152C321.687 475.152 329.157 474.186 331.124 473.893C331.486 474.98 331.849 476.049 332.228 477.135C334.022 482.309 335.817 487.447 337.439 492.552C338.008 494.345 338.508 496.139 339.009 497.932C338.456 496.846 337.991 495.932 337.904 495.811C335.247 491.776 327.76 485.533 322.549 486.965C318.788 487.999 317.184 492.121 318.53 495.604C319.91 499.156 324.05 501.381 327.535 502.364C330.9 503.312 337.784 502.485 340.13 502.157C340.596 504.002 341.044 505.864 341.407 507.675C341.631 508.917 341.924 510.107 342.079 511.365C342.252 512.607 342.425 513.849 342.597 515.056C342.839 517.418 343.115 519.85 343.287 522.16C343.425 523.764 343.529 525.299 343.632 526.851C343.08 525.058 341.941 521.557 341.821 521.281C340.492 518.367 337.18 514.176 333.539 511.866C333.35 511.434 333.108 511.021 332.849 510.624C330.71 507.572 326.38 506.606 323.429 509.158C319.34 512.693 320.358 522.385 322.239 526.834C322.342 527.092 323.878 529.8 324.861 531.507C324.137 530.593 323.429 529.713 322.653 528.782C321.152 526.937 319.599 525.144 317.926 523.212C317.098 522.316 316.252 521.384 315.39 520.47C314.561 519.539 313.578 518.66 312.664 517.729C310.507 515.642 308.213 513.624 305.849 511.641C307.453 510.314 313.095 505.554 314.734 502.312C316.356 499.087 317.512 494.535 315.821 491.103C314.165 487.758 310.041 486.154 306.746 488.223C302.157 491.103 301.708 500.829 302.899 505.52C302.968 505.813 304.21 509.072 304.917 510.848C303.485 509.675 302.071 508.486 300.587 507.347C296.308 504.037 291.874 500.829 287.475 497.604C286.129 496.621 284.783 495.621 283.455 494.621C284.042 494.156 290.874 488.637 292.685 485.016C294.307 481.791 295.463 477.239 293.772 473.807C292.116 470.462 287.992 468.858 284.697 470.927C280.108 473.807 279.659 483.533 280.85 488.223C280.936 488.568 282.713 493.276 283.231 494.431C280.28 492.241 277.365 490.034 274.587 487.723C270.74 484.55 267.134 481.239 263.89 477.773C264.166 477.566 271.309 471.824 273.172 468.116C274.794 464.892 275.95 460.339 274.259 456.908C272.603 453.562 268.48 451.958 265.184 454.028C260.595 456.908 260.147 466.633 261.337 471.324C261.423 471.634 262.769 475.204 263.442 476.894C263.304 476.98 263.321 476.963 263.183 477.049C259.75 473.29 256.886 469.203 254.401 465.254C252.952 462.978 251.71 460.701 250.537 458.477C251.986 457.546 258.525 453.217 260.578 450.062C262.545 447.027 264.201 442.629 262.89 439.042C261.613 435.525 257.679 433.49 254.177 435.18C249.312 437.525 247.776 447.165 248.449 451.941C248.484 452.2 249.139 454.804 249.657 456.701C249.139 455.683 248.605 454.649 248.121 453.666C246.344 449.993 244.947 446.509 243.722 443.405C243.049 441.646 242.463 440.025 241.945 438.525C242.877 436.87 246.586 430.179 246.931 426.488C247.276 422.902 246.724 418.228 243.912 415.642C241.151 413.107 236.735 413.107 234.406 416.228C231.162 420.556 234.25 429.817 237.045 433.748C237.287 434.093 241.669 438.973 241.721 438.887C241.721 438.887 241.773 438.801 241.773 438.784C242.256 440.249 242.773 441.819 243.394 443.509C244.55 446.63 245.879 450.148 247.587 453.89C249.277 457.632 251.227 461.633 253.66 465.685C256.092 469.737 258.853 473.876 262.269 477.773C262.303 477.825 262.355 477.86 262.389 477.894C261.044 477.066 257.196 474.859 256.869 474.738C252.435 472.824 242.739 471.755 239.167 475.825C236.597 478.756 237.528 483.085 240.582 485.24C243.705 487.447 248.38 487.016 251.831 485.93C255.713 484.706 262.269 478.791 262.786 478.325C266.064 482.015 269.722 485.516 273.621 488.879C275.846 490.793 278.158 492.655 280.487 494.5C279.297 493.828 278.227 493.224 278.072 493.155C273.638 491.241 263.942 490.172 260.371 494.242C257.8 497.173 258.732 501.502 261.786 503.657C264.908 505.864 269.584 505.433 273.017 504.347C276.502 503.243 282.195 498.311 283.679 497.001C284.576 497.691 285.474 498.398 286.371 499.087C290.718 502.416 295.066 505.709 299.224 509.072C300.69 510.262 302.088 511.486 303.503 512.693C302.45 512.09 301.553 511.59 301.398 511.521C296.964 509.607 287.268 508.537 283.714 512.607C281.143 515.539 282.075 519.867 285.128 522.022C288.251 524.23 292.927 523.799 296.36 522.712C299.69 521.66 304.986 517.16 306.746 515.59C308.143 516.884 309.558 518.16 310.852 519.488C311.715 520.402 312.629 521.229 313.44 522.195C314.268 523.143 315.096 524.075 315.907 524.989C317.408 526.834 318.978 528.713 320.41 530.541C321.411 531.8 322.342 533.024 323.291 534.266C321.842 533.076 318.961 530.783 318.702 530.627C314.596 528.075 305.176 525.54 301.053 529.024C298.068 531.541 298.344 535.956 301.035 538.543C303.779 541.198 308.471 541.474 312.043 540.922C315.959 540.302 323.067 535.68 323.947 535.094C325.5 537.129 326.983 539.129 328.364 541.043C333.143 547.648 336.869 553.338 339.423 557.339C339.509 557.477 339.595 557.615 339.681 557.753L342.994 556.149C342.821 555.89 342.649 555.632 342.476 555.356C339.802 551.355 335.92 545.699 330.934 539.146C329.364 537.06 327.656 534.887 325.862 532.645C326.328 532.145 328.916 529.265 331.003 526.282C334.799 527.765 342.718 527.834 343.736 527.834C343.908 530.386 344.046 532.886 344.133 535.232C344.478 543.371 344.443 550.183 344.374 554.925C344.374 555.115 344.374 555.287 344.357 555.477L347.997 553.718C347.963 548.993 347.825 542.612 347.342 535.059C347.186 532.455 346.962 529.696 346.703 526.851C347.704 526.592 355.933 524.488 359.056 522.005C361.868 519.746 364.836 516.108 364.732 512.297C364.629 508.555 361.558 505.382 357.693 505.882C352.328 506.571 347.825 515.228 346.945 519.97C346.893 520.246 346.669 523.35 346.548 525.316C346.444 524.161 346.341 523.023 346.22 521.833C345.979 519.47 345.668 517.125 345.357 514.59C345.168 513.366 344.961 512.141 344.754 510.9C344.581 509.658 344.236 508.382 343.977 507.106C343.322 504.175 342.528 501.226 341.648 498.277C343.718 498.07 351.051 497.208 354.191 495.397C357.314 493.604 360.799 490.448 361.282 486.654C361.748 482.947 359.194 479.343 355.295 479.239C349.895 479.101 344.133 486.982 342.528 491.534C342.424 491.81 341.648 495.225 341.269 497.087C340.734 495.311 340.199 493.552 339.595 491.776C337.853 486.654 335.92 481.533 334.04 476.428C333.453 474.859 332.901 473.29 332.332 471.721C333.074 471.652 341.821 470.824 345.34 468.789C348.463 466.996 351.948 463.84 352.431 460.046C352.897 456.339 350.343 452.734 346.444 452.631C341.044 452.493 335.282 460.374 333.677 464.926C333.557 465.271 332.452 470.169 332.228 471.427C330.986 467.979 329.761 464.512 328.709 461.063C327.242 456.304 326.069 451.545 325.275 446.854C325.62 446.82 334.747 445.992 338.353 443.923C341.476 442.129 344.961 438.973 345.444 435.18C345.91 431.472 343.356 427.868 339.457 427.765C334.057 427.627 328.295 435.507 326.69 440.06C326.587 440.353 325.741 444.078 325.379 445.871C325.206 445.871 325.241 445.871 325.068 445.871C324.275 440.836 324.137 435.852 324.257 431.196C324.309 428.489 324.516 425.919 324.775 423.402C326.5 423.419 334.333 423.419 337.784 421.919C341.096 420.47 344.909 417.711 345.789 414.004C346.669 410.365 344.512 406.502 340.647 405.985C335.282 405.261 328.691 412.452 326.621 416.814C326.5 417.056 325.62 419.591 324.999 421.436C325.137 420.315 325.241 419.142 325.396 418.056C325.948 414.003 326.69 410.33 327.38 407.071C327.794 405.226 328.191 403.571 328.588 402.019C330.279 401.156 337.059 397.604 339.388 394.741C341.648 391.931 343.77 387.74 342.839 384.033C341.924 380.515 338.232 378.066 334.557 379.394Z" fill="#9FCD00"/>
<path d="M356.982 487.738C352.755 487.565 344.301 483.237 344.301 483.237C344.215 483.185 348.856 478.547 349.184 478.271C352.962 475.253 362.037 471.666 366.54 474.649C369.784 476.805 370.025 481.22 367.662 484.099C365.229 487.065 360.588 487.876 356.982 487.738Z" fill="#C6FF00"/>
<g opacity="0.5">
<path opacity="0.5" d="M356.982 487.738C352.755 487.565 344.301 483.237 344.301 483.237C344.215 483.185 348.856 478.547 349.184 478.271C352.962 475.253 362.037 471.666 366.54 474.649C369.784 476.805 370.025 481.22 367.662 484.099C365.229 487.065 360.588 487.876 356.982 487.738Z" fill="white"/>
</g>
</g>
<path d="M134.043 156.504C134.043 156.504 136.458 152.055 136.458 144.346C136.458 136.638 127.107 132.172 116.152 130.947C105.179 129.723 100.314 134.189 101.936 137.035C103.557 139.88 108.026 143.122 108.026 143.122C108.026 143.122 97.0531 137.035 89.738 141.898C82.4228 146.778 92.9815 144.743 90.9629 149.606C88.9271 154.486 77.5576 152.451 74.7109 165.436C71.8642 178.421 79.9902 191.424 72.6751 197.114C65.36 202.805 43.4318 195.079 36.9276 209.289C30.4233 223.498 39.619 229.792 24.1779 238.725C8.73676 247.658 -2.47746 256.383 1.99098 278.318C6.45941 300.236 21.0897 307.961 49.9188 300.236C78.7653 292.528 76.7295 275.059 86.0804 257.194C95.4313 239.329 110.044 242.984 114.513 232.827C118.981 222.671 113.288 210.496 113.702 201.149C114.116 191.803 123.45 189.785 127.107 178.818C130.765 167.902 134.043 156.504 134.043 156.504Z" fill="#263238" stroke="#263238" stroke-miterlimit="10" stroke-linecap="round" stroke-linejoin="round"/>
<path d="M5.35525 278.008C4.63064 279.456 4.23383 281.077 4.23383 282.923" stroke="white" stroke-width="0.5" stroke-miterlimit="10" stroke-linecap="round" stroke-linejoin="round"/>
<path d="M118.446 148.451C118.446 148.451 113.357 142.587 123.139 145.329C135.44 148.778 121 162.988 115.427 165.85C104.282 171.575 89.5482 169.747 80.8874 180.111C73.072 189.492 83.6306 199.27 78.9379 206.702C74.2451 214.135 55.4743 209.823 49.2115 218.825C42.9488 227.809 60.5465 246.968 42.5693 257.521C29.5608 265.161 15.3101 268.092 8.42627 274.145" stroke="white" stroke-width="0.5" stroke-miterlimit="10" stroke-linecap="round" stroke-linejoin="round"/>
<path d="M89.2721 183.146C88.3232 185.716 87.7539 188.544 88.3405 191.062C89.9105 197.701 98.8991 210.22 90.6869 217.256C82.4746 224.292 68.3964 223.895 66.0501 232.103C63.7037 240.312 68.3964 262.988 60.581 273.542C52.7655 284.095 37.4969 283.319 29.2847 290.355C21.0724 297.391 22.2456 301.305 22.2456 301.305" stroke="white" stroke-width="0.5" stroke-miterlimit="10" stroke-linecap="round" stroke-linejoin="round"/>
<path d="M93.4128 175.421C93.4128 175.421 92.4984 176.645 91.4288 178.542" stroke="white" stroke-width="0.5" stroke-miterlimit="10" stroke-linecap="round" stroke-linejoin="round"/>
<path d="M139.305 277.387L141.306 292.924C141.306 292.924 151.675 303.288 159.249 309.669C166.823 316.049 186.37 329.603 186.37 329.603L176.398 332.397C176.398 332.397 144.101 313.255 137.718 311.669C131.334 310.082 126.555 300.908 124.554 298.115C122.552 295.321 134.112 274.593 139.305 277.387Z" fill="white" stroke="#263238" stroke-miterlimit="10" stroke-linecap="round" stroke-linejoin="round"/>
<path d="M107.922 196.614C107.922 196.614 109.803 209.272 107.387 214.376C104.972 219.497 97.4154 220.032 90.963 221.101C84.4932 222.17 69.6904 227.827 71.3122 242.364C72.9339 256.901 91.515 288.389 91.515 297.27C91.515 306.151 85.8562 310.72 79.6625 327.948C73.4688 345.175 74.2796 377.215 76.1602 397.925C78.0407 418.653 84.2344 438.295 84.2344 438.295C84.2344 438.295 75.7508 450.773 69.005 461.533C76.0055 468.534 79.0057 471.534 89.5064 479.535C89.5064 479.535 89.0824 479.198 97.6915 469.783C106.318 460.367 114.392 443.951 115.462 436.398C116.531 428.862 115.186 382.837 115.186 382.837C115.186 382.837 124.882 405.979 132.421 417.825C139.961 429.672 145.067 440.174 145.067 440.174C145.067 440.174 143.204 456.056 145.085 469.507C146.965 482.958 144.63 508.537 146.511 512.037C155.011 515.537 156.511 516.037 160.012 517.538C160.012 517.538 163.648 485.13 165.546 469.783C167.427 454.435 170.67 441.243 169.583 437.76C168.514 434.259 161.768 396.839 156.661 379.077C151.537 361.316 135.923 328.206 132.421 319.584C128.919 310.979 127.038 303.167 127.573 300.477C128.108 297.787 138.615 281.629 141.306 277.335C143.998 273.024 145.085 265.23 141.841 258.228C138.615 251.227 141.841 241.812 141.306 236.156C140.771 230.499 132.421 228.085 128.108 225.93C123.795 223.774 122.19 218.928 122.19 214.893C122.19 210.858 124.606 205.202 124.606 205.202C124.606 205.202 111.425 196.614 107.922 196.614Z" fill="white" stroke="#263238" stroke-miterlimit="10" stroke-linecap="round" stroke-linejoin="round"/>
<path d="M140.564 254.193C140.564 254.193 137.511 246.192 137.028 243.14" stroke="#263238" stroke-miterlimit="10" stroke-linecap="round" stroke-linejoin="round"/>
<path d="M105.593 284.164C105.593 284.164 110.476 285.251 120.223 280.37" stroke="#263238" stroke-miterlimit="10" stroke-linecap="round" stroke-linejoin="round"/>
<path d="M155.661 380.344C150.778 363.359 136.286 332.388 131.973 322.162C111.218 329.922 91.9124 323.3 82.8202 319.023C81.4918 321.886 80.0943 325.179 78.6451 329.197C72.4514 346.425 73.2622 378.465 75.1428 399.175C77.0233 419.903 83.217 439.544 83.217 439.544C83.217 439.544 75.7507 450.773 69.0049 461.533C75.0053 468.034 89.0063 479.367 90.0064 478.267C95.007 472.767 94.0979 473.86 96.0069 470.767C104.633 461.351 113.375 445.201 114.444 437.648C115.514 430.112 114.168 384.086 114.168 384.086C114.168 384.086 123.864 407.228 131.404 419.075C138.943 430.922 144.05 441.424 144.05 441.424C144.05 441.424 142.187 457.306 144.067 470.757C145.948 484.208 143.63 509.769 145.511 513.27C150.011 515.27 153.118 516.326 159.011 518.77C159.011 518.77 162.631 486.38 164.529 471.033C166.409 455.685 169.653 442.493 168.566 439.01C167.513 435.526 160.785 398.106 155.661 380.344Z" fill="#263238" stroke="#263238" stroke-miterlimit="10" stroke-linecap="round" stroke-linejoin="round"/>
<path d="M262.144 362.023V358.505H265.094V330.879H262.144H233.021H230.071V358.505H233.021V362.023H230.054V368.438H241.423V366.282H253.742V368.438H265.094V362.023H262.144Z" fill="#FFBC00" stroke="#263238" stroke-miterlimit="10" stroke-linecap="round" stroke-linejoin="round"/>
<path d="M277.084 334.949H73.9172V322.619H277.084C278.792 322.619 280.155 323.999 280.155 325.689V331.862C280.155 333.569 278.775 334.949 277.084 334.949Z" fill="#FFBC00" stroke="#263238" stroke-miterlimit="10" stroke-linecap="round" stroke-linejoin="round"/>
<path d="M219.754 336.794H207.366C206.418 336.794 205.658 336.035 205.658 335.087V322.464C205.658 321.515 206.418 320.757 207.366 320.757H219.754C220.703 320.757 221.462 321.515 221.462 322.464V335.087C221.445 336.035 220.686 336.794 219.754 336.794Z" fill="#FFBC00" stroke="#263238" stroke-miterlimit="10" stroke-linecap="round" stroke-linejoin="round"/>
<path d="M80.2793 333.962C83.1418 316.489 71.2909 300.005 53.8097 297.144C36.3285 294.283 19.8367 306.128 16.9742 323.601C14.1118 341.074 25.9626 357.558 43.4438 360.419C60.925 363.28 77.4168 351.435 80.2793 333.962Z" fill="#FFBC00" stroke="#263238" stroke-miterlimit="10" stroke-linecap="round" stroke-linejoin="round"/>
<path d="M55.2154 328.775C59.0109 326.792 61.5816 323.154 61.5816 318.98C61.5816 312.686 55.7847 307.582 48.6249 307.582C41.465 307.582 35.6681 312.686 35.6681 318.98C35.6681 323.154 38.2215 326.792 42.0343 328.775C38.2388 330.758 35.6681 334.397 35.6681 338.57C35.6681 344.864 41.465 349.969 48.6249 349.969C55.7847 349.969 61.5816 344.864 61.5816 338.57C61.5816 334.414 59.0109 330.776 55.2154 328.775Z" fill="white" stroke="#263238" stroke-miterlimit="10" stroke-linecap="round" stroke-linejoin="round"/>
<path d="M180.021 335.208C180.021 335.208 190.045 339.432 193.168 339.432C196.29 339.432 199.844 336.311 201.639 332.535C203.416 328.741 203.416 326.965 202.312 327.861C201.19 328.758 200.086 329.638 200.086 329.638C200.086 329.638 201.863 325.844 199.862 326.292C197.86 326.741 196.739 328.965 196.739 328.965C196.739 328.965 196.515 325.62 194.738 327.189C192.961 328.741 191.615 330.758 191.615 330.758C191.615 330.758 191.391 326.534 190.286 327.637C189.165 328.758 184.938 334.759 184.938 334.759L180.021 335.208Z" fill="white" stroke="#263238" stroke-miterlimit="10" stroke-linecap="round" stroke-linejoin="round"/>
<path d="M191.615 330.759C191.615 330.759 190.942 336.104 187.612 337.001L191.615 330.759Z" fill="white"/>
<path d="M191.615 330.759C191.615 330.759 190.942 336.104 187.612 337.001" stroke="#263238" stroke-miterlimit="10" stroke-linecap="round" stroke-linejoin="round"/>
<path d="M196.739 328.982C196.739 328.982 194.962 337.449 192.288 338.777L196.739 328.982Z" fill="white"/>
<path d="M196.739 328.982C196.739 328.982 194.962 337.449 192.288 338.777" stroke="#263238" stroke-miterlimit="10" stroke-linecap="round" stroke-linejoin="round"/>
<path d="M200.086 329.638C200.086 329.638 198.085 336.311 196.515 338.553L200.086 329.638Z" fill="white"/>
<path d="M200.086 329.638C200.086 329.638 198.085 336.311 196.515 338.553" stroke="#263238" stroke-miterlimit="10" stroke-linecap="round" stroke-linejoin="round"/>
<path d="M127.573 225.619C123.708 223.326 122.207 218.773 122.207 214.928C122.207 210.892 124.623 205.236 124.623 205.236C124.623 205.236 111.425 196.614 107.922 196.614C107.922 196.614 109.803 209.272 107.387 214.376C106.611 215.997 105.334 217.169 103.73 218.032C105.49 224.015 112.667 237.38 116.583 242.191C121.483 248.261 123.864 235.431 127.573 225.619Z" fill="white" stroke="#263238" stroke-miterlimit="10" stroke-linecap="round" stroke-linejoin="round"/>
<path d="M86.8395 222.86C86.8395 222.86 76.5915 223.998 71.2776 234.241C65.9638 244.485 42.759 290.976 44.7258 293.752C56.0091 309.617 97.0531 321.033 101.228 325.206C105.403 329.379 110.734 334.363 114.91 337.018C119.085 339.674 127.435 338.536 128.953 337.777C130.472 337.018 131.61 333.604 128.953 333.604C126.296 333.604 124.933 331.69 124.554 330.172C124.174 328.655 128.729 331.69 131.006 330.552C133.284 329.413 125.917 325.258 123.639 323.361C121.362 321.464 119.464 318.808 116.428 318.808C113.391 318.808 107.698 318.739 107.698 318.739C107.698 318.739 93.7234 308.617 85.2696 301.081C73.8828 290.924 63.859 285.457 63.859 285.457L89.4792 243.329" fill="white"/>
<path d="M86.8395 222.86C86.8395 222.86 76.5915 223.998 71.2776 234.241C65.9638 244.485 42.759 290.976 44.7258 293.752C56.0091 309.617 97.0531 321.033 101.228 325.206C105.403 329.379 110.734 334.363 114.91 337.018C119.085 339.674 127.435 338.536 128.953 337.777C130.472 337.018 131.61 333.604 128.953 333.604C126.296 333.604 124.933 331.69 124.554 330.172C124.174 328.655 128.729 331.69 131.006 330.552C133.284 329.413 125.917 325.258 123.639 323.361C121.362 321.464 119.464 318.808 116.428 318.808C113.391 318.808 107.698 318.739 107.698 318.739C107.698 318.739 93.7234 308.617 85.2696 301.081C73.8828 290.924 63.859 285.457 63.859 285.457L89.4792 243.329" stroke="#263238" stroke-miterlimit="10" stroke-linecap="round" stroke-linejoin="round"/>
<path d="M123.657 323.343C121.379 321.446 119.482 318.791 116.445 318.791C113.409 318.791 107.715 318.722 107.715 318.722C107.715 318.722 93.7406 308.599 85.2868 301.064C73.9001 290.907 63.8763 285.44 63.8763 285.44L74.1244 268.592C67.3958 264.385 60.3222 263.695 56.7509 263.643C49.9189 278.025 43.6734 292.234 44.7259 293.735C56.0091 309.6 97.0531 321.015 101.228 325.189C105.403 329.362 110.734 334.345 114.91 337.001C119.085 339.657 127.435 338.518 128.953 337.76C130.472 337.001 131.61 333.587 128.953 333.587C126.296 333.587 124.933 331.672 124.554 330.155C124.174 328.637 128.729 331.672 131.006 330.534C133.284 329.396 125.917 325.24 123.657 323.343Z" fill="white" stroke="#263238" stroke-miterlimit="10" stroke-linecap="round" stroke-linejoin="round"/>
<path d="M137.545 178.042C136.199 175.352 136.199 173.196 136.734 169.437C137.269 165.66 134.043 156.521 134.043 156.521C134.043 156.521 134.008 156.538 133.991 156.555C130.696 162.263 121.172 165.643 116.945 166.936C112.304 168.368 119.085 171.575 118.377 175.852C117.67 180.128 108.388 182.629 108.388 182.629C108.388 182.629 105.731 176.921 101.97 176.921C98.1917 176.921 95.5348 185.543 97.6914 190.113C99.848 194.683 104.437 193.648 104.437 193.648C104.437 193.648 104.161 201.718 109.285 204.15C114.409 206.564 123.018 209.806 126.245 210.341C129.471 210.875 132.714 209.272 134.06 204.426C135.406 199.58 136.217 189.613 136.217 189.613C136.217 189.613 141.065 186.388 142.41 184.491C143.739 182.612 138.891 180.732 137.545 178.042Z" fill="white" stroke="#263238" stroke-miterlimit="10" stroke-linecap="round" stroke-linejoin="round"/>
<path d="M132.3 178.163C132.3 179.646 131.817 180.836 131.231 180.836C130.644 180.836 130.161 179.646 130.161 178.163C130.161 176.68 130.644 175.49 131.231 175.49C131.817 175.49 132.3 176.68 132.3 178.163Z" fill="#263238"/>
<path d="M127.659 173.714C127.659 173.714 130.506 170.506 132.663 171.213" stroke="#263238" stroke-miterlimit="10" stroke-linecap="round" stroke-linejoin="round"/>
<path d="M132.662 195.821C132.662 195.821 128.729 197.252 125.175 194.045" stroke="#263238" stroke-miterlimit="10" stroke-linecap="round" stroke-linejoin="round"/>
<path d="M342.837 546.04C366.527 546.04 469.535 528.13 548.04 415.03L548.04 99.9433C548.04 86.1717 537.83 75.0054 525.238 75.0054H342.825C330.233 75.0054 320.023 86.1717 320.023 99.9433V521.102C320.035 534.873 330.245 546.04 342.837 546.04Z" fill="#263238"/>
<path d="M331.024 127.009H537.039V430.031C537.039 430.031 528.538 443.032 507.037 464.534C485.535 486.035 472.034 494.036 472.034 494.036H331.024V127.009Z" fill="#FFBC00" stroke="#263238" stroke-width="1.3374" stroke-miterlimit="10"/>
<path d="M472.416 325.596H395.055C390.966 325.596 387.653 322.553 387.653 318.794V278.334C387.653 255.004 408.322 236.017 433.752 236.017C459.183 236.017 479.852 255.004 479.852 278.334V318.794C479.817 322.553 476.505 325.596 472.416 325.596ZM402.456 311.992H465.014V278.334C465.014 262.493 450.988 249.621 433.735 249.621C416.482 249.621 402.456 262.508 402.456 278.334V311.992Z" fill="#263238"/>
<path d="M487.443 297.994H380.028V384.15H487.443V297.994Z" fill="white"/>
<path d="M449.383 357.308L441.413 341.057C444.794 338.951 447.002 335.396 447.002 331.359C447.002 324.894 441.292 319.643 434.253 319.643C427.214 319.643 421.503 324.894 421.503 331.359C421.503 335.396 423.729 338.951 427.093 341.057L419.122 357.308H449.383Z" fill="#263238" stroke="#263238" stroke-miterlimit="10" stroke-linecap="round" stroke-linejoin="round"/>
<path d="M409.316 100.993H458.674C460.533 100.993 462.034 99.4918 462.034 97.631C462.034 95.7701 460.52 94.2686 458.674 94.2686H409.316C407.457 94.2686 405.957 95.7701 405.957 97.631C405.957 99.4918 407.457 100.993 409.316 100.993Z" fill="white" stroke="#263238" stroke-width="1.3374" stroke-miterlimit="10" stroke-linecap="round" stroke-linejoin="round"/>
<defs>
<linearGradient id="paint0_linear" x1="0" y1="0" x2="707.671" y2="345.689" gradientUnits="userSpaceOnUse">
<stop stop-color="#FFBA00"/>
<stop offset="0.474707" stop-color="#FFCE44"/>
<stop offset="1" stop-color="#FFB900"/>
</linearGradient>
<linearGradient id="paint1_linear" x1="0" y1="0" x2="707.671" y2="345.689" gradientUnits="userSpaceOnUse">
<stop stop-color="#FFBA00"/>
<stop offset="0.474707" stop-color="#FFCE44"/>
<stop offset="1" stop-color="#FFB900"/>
</linearGradient>
</defs>
</svg>
