<svg width="609" height="495" viewBox="0 0 609 495" fill="none" xmlns="http://www.w3.org/2000/svg">
<g clip-path="url(#clip0)">
<path opacity="0.24" d="M518.099 94.9064C518.099 94.9064 455.083 12.0048 333.811 1.02239C212.539 -9.95998 179.117 69.9368 137.106 110.892C95.0957 151.847 7.2458 181.804 0.56439 280.692C-6.11702 379.579 47.3495 429.503 121.837 427.505C196.308 425.506 219.236 442.483 282.251 476.437C345.267 510.391 450.309 496.419 499.962 445.473C549.615 394.542 586.85 369.573 597.361 274.682C607.856 179.806 518.099 94.9064 518.099 94.9064Z" fill="url(#paint0_linear)"/>
<path d="M437.322 324.955C437.417 324.942 434.181 319.063 433.928 318.731C431.068 314.721 423.185 308.649 417.926 310.324C414.128 311.522 412.66 315.781 414.16 319.283C415.698 322.856 420.027 324.957 423.608 325.832C427.791 326.845 437.307 324.96 437.322 324.955Z" fill="#9FCD00"/>
<path d="M434.207 279.591C429.818 282.93 430.241 292.868 431.875 297.528C432.018 297.927 434.954 303.95 435.014 303.882C435.014 303.882 435.075 303.813 435.105 303.804C435.158 305.381 435.245 307.062 435.364 308.897C435.611 312.286 435.93 316.112 436.546 320.255C437.163 324.398 437.937 328.885 439.19 333.534C440.433 338.202 441.99 343.034 444.237 347.812C444.271 347.867 444.305 347.922 444.319 347.967C443.233 346.765 440.063 343.543 439.794 343.316C435.967 340.202 426.767 336.418 422.126 339.426C418.779 341.583 418.492 346.093 420.873 349.055C423.312 352.097 428.028 352.975 431.714 352.88C435.866 352.753 443.958 348.804 444.598 348.487C446.77 353.026 449.379 357.493 452.258 361.876C453.903 364.38 455.638 366.855 457.417 369.317C456.442 368.31 455.554 367.424 455.422 367.318C451.595 364.204 442.4 360.435 437.754 363.428C434.407 365.585 434.12 370.095 436.501 373.057C438.94 376.099 443.656 376.977 447.342 376.882C451.072 376.773 458.042 373.539 459.866 372.652C460.555 373.584 461.234 374.537 461.923 375.469C465.241 379.943 468.589 384.407 471.724 388.872C472.829 390.446 473.859 392.043 474.899 393.621C474.026 392.73 473.3 391.99 473.168 391.884C469.341 388.77 460.141 384.986 455.5 387.994C452.153 390.151 451.866 394.661 454.247 397.623C456.686 400.665 461.402 401.543 465.088 401.448C468.655 401.341 475.114 398.416 477.287 397.386C478.302 399.037 479.321 400.704 480.236 402.354C480.827 403.498 481.489 404.554 482.01 405.737C482.556 406.895 483.113 408.034 483.654 409.178C484.62 411.403 485.623 413.699 486.51 415.884C487.139 417.41 487.711 418.856 488.277 420.337C487.187 418.759 485.005 415.701 484.801 415.47C482.604 413.041 478.103 409.976 473.852 408.853C473.526 408.496 473.174 408.163 472.802 407.87C469.771 405.557 465.277 405.956 463.184 409.327C460.276 414.023 464.257 423.151 467.458 426.889C467.643 427.11 469.958 429.287 471.448 430.624C470.452 429.969 469.506 429.315 468.475 428.654C466.444 427.323 464.383 426.052 462.174 424.678C461.088 424.052 459.983 423.414 458.863 422.782C457.768 422.125 456.542 421.576 455.362 420.962C452.613 419.595 449.768 418.34 446.857 417.139C448.021 415.359 452.048 408.996 452.638 405.343C453.218 401.71 452.954 396.913 450.258 394.1C447.616 391.352 443.118 391.062 440.54 394.094C436.966 398.294 439.506 407.909 442.095 412.103C442.259 412.363 444.455 415.153 445.689 416.67C443.936 415.958 442.197 415.241 440.398 414.593C435.228 412.692 429.921 410.932 424.64 409.148C423.022 408.607 421.415 408.046 419.808 407.485C420.235 406.858 425.177 399.384 425.843 395.297C426.423 391.663 426.16 386.867 423.464 384.054C420.821 381.306 416.324 381.016 413.745 384.047C410.171 388.247 412.711 397.862 415.3 402.056C415.498 402.372 418.66 406.402 419.527 407.377C415.982 406.146 412.462 404.89 409.049 403.503C404.325 401.609 399.808 399.485 395.568 397.093C395.771 396.799 400.965 389.032 401.649 384.841C402.229 381.208 401.965 376.411 399.269 373.598C396.627 370.85 392.129 370.56 389.551 373.592C385.977 377.792 388.517 387.406 391.106 391.601C391.275 391.876 393.689 394.942 394.865 396.378C394.759 396.51 394.769 396.491 394.663 396.623C390.159 394.019 386.124 390.921 382.49 387.845C380.382 386.063 378.463 384.253 376.643 382.445C377.761 381.09 382.806 374.882 383.824 371.176C384.809 367.629 385.056 362.835 382.687 359.755C380.366 356.725 375.916 355.96 373.025 358.679C369.007 362.461 370.482 372.296 372.596 376.755C372.706 377 374.146 379.322 375.224 381.02C374.419 380.189 373.56 379.343 372.795 378.533C369.929 375.494 367.503 372.546 365.37 369.9C364.17 368.39 363.106 367 362.136 365.696C362.539 363.795 364.087 356.143 363.3 352.448C362.526 348.848 360.554 344.475 357.026 342.828C353.572 341.207 349.266 342.566 347.95 346.316C346.124 351.525 351.972 359.587 355.9 362.554C356.243 362.807 362.019 366.21 362.04 366.121C362.04 366.121 362.061 366.032 362.071 366.012C362.983 367.285 363.972 368.649 365.093 370.119C367.176 372.813 369.557 375.825 372.362 378.932C375.152 382.044 378.286 385.36 381.889 388.545C385.495 391.744 389.46 394.929 393.972 397.662C394.031 397.693 394.09 397.724 394.129 397.744C392.559 397.352 388.147 396.395 387.79 396.36C382.884 395.87 373.119 397.801 370.9 402.855C369.303 406.496 371.544 410.422 375.165 411.58C378.879 412.774 383.303 410.902 386.317 408.785C389.708 406.401 394.278 398.634 394.64 398.01C398.957 400.591 403.595 402.891 408.42 404.95C411.178 406.134 413.991 407.234 416.829 408.31C415.471 408.016 414.24 407.763 414.067 407.736C409.161 407.246 399.396 409.177 397.177 414.231C395.58 417.873 397.821 421.799 401.442 422.956C405.156 424.151 409.58 422.278 412.594 420.161C415.649 418.014 419.668 411.472 420.713 409.73C421.808 410.124 422.892 410.538 423.986 410.932C429.236 412.824 434.481 414.702 439.565 416.696C441.364 417.394 443.101 418.16 444.835 418.911C443.619 418.654 442.596 418.434 442.428 418.422C437.522 417.932 427.757 419.863 425.537 424.917C423.941 428.558 426.182 432.484 429.803 433.642C433.517 434.836 437.941 432.964 440.955 430.847C443.875 428.792 447.637 422.791 448.891 420.72C450.647 421.546 452.419 422.367 454.091 423.236C455.226 423.864 456.343 424.382 457.447 425.069C458.542 425.726 459.637 426.382 460.712 427.029C462.743 428.36 464.844 429.701 466.8 431.056C468.158 431.974 469.448 432.882 470.737 433.79C468.964 433.068 465.45 431.728 465.149 431.659C460.374 430.438 450.43 430.864 447.478 435.525C445.351 438.891 446.958 443.099 450.371 444.798C453.863 446.539 458.508 445.369 461.808 443.737C465.432 441.936 470.936 435.255 471.609 434.418C473.746 435.929 475.809 437.414 477.725 438.847C484.402 443.805 489.78 448.187 493.492 451.304C493.624 451.41 493.741 451.521 493.873 451.627L496.593 449.044C496.349 448.842 496.109 448.655 495.844 448.443C492.017 445.379 486.495 441.058 479.637 436.206C477.476 434.67 475.127 433.062 472.709 431.442C473.002 430.808 474.647 427.216 475.752 423.681C479.902 423.965 487.636 421.591 488.623 421.279C489.57 423.708 490.473 426.101 491.284 428.359C494.116 436.189 496.185 442.799 497.556 447.459C497.618 447.653 497.669 447.818 497.711 448.002L500.713 445.165C499.236 440.588 497.125 434.419 494.342 427.213C493.396 424.735 492.319 422.102 491.207 419.413C492.119 418.862 499.468 414.277 501.739 410.898C503.783 407.839 505.566 403.382 504.288 399.695C503.053 396.092 499.071 393.947 495.469 395.609C490.463 397.928 488.736 407.722 489.33 412.628C489.37 412.911 490.098 416 490.597 417.946C490.134 416.843 489.7 415.781 489.198 414.658C488.247 412.428 487.227 410.236 486.135 407.869C485.568 406.75 484.997 405.616 484.421 404.467C483.879 403.324 483.154 402.172 482.509 401.012C480.98 398.356 479.283 395.738 477.525 393.138C479.478 392.292 486.346 389.205 488.855 386.474C491.354 383.764 493.762 379.62 493.066 375.798C492.374 372.04 488.789 369.327 484.962 370.435C479.657 371.961 476.468 381.396 476.313 386.324C476.313 386.636 476.592 390.179 476.793 392.12C475.728 390.567 474.662 389.013 473.532 387.464C470.273 383.021 466.815 378.625 463.406 374.229C462.357 372.885 461.338 371.53 460.304 370.181C461.002 369.895 469.251 366.389 472.053 363.336C474.552 360.625 476.96 356.481 476.279 352.655C475.591 348.912 472.001 346.184 468.175 347.292C462.869 348.818 459.681 358.252 459.526 363.181C459.51 363.547 459.937 368.653 460.114 369.945C457.842 366.965 455.6 363.976 453.508 360.939C450.626 356.755 448.014 352.486 445.813 348.169C446.133 348.036 454.775 344.422 457.637 341.301C460.136 338.591 462.544 334.446 461.858 330.605C461.171 326.862 457.581 324.134 453.755 325.242C448.449 326.768 445.26 336.203 445.105 341.131C445.09 341.448 445.413 345.338 445.601 347.185C445.437 347.237 445.467 347.227 445.297 347.264C442.974 342.608 441.327 337.805 439.998 333.229C439.229 330.581 438.631 328.009 438.117 325.493C439.796 324.98 447.437 322.569 450.324 320.048C453.096 317.63 455.955 313.77 455.687 309.896C455.422 306.085 452.145 302.995 448.232 303.671C442.792 304.615 438.584 313.632 437.889 318.517C437.855 318.774 437.77 321.528 437.738 323.51C437.523 322.362 437.27 321.193 437.089 320.1C436.383 315.985 435.989 312.183 435.663 308.803C435.501 306.883 435.38 305.146 435.293 303.514C436.674 302.159 442.194 296.622 443.57 293.116C444.92 289.683 445.682 284.958 443.644 281.625C441.713 278.422 437.375 277.179 434.207 279.591Z" fill="#9FCD00"/>
<path d="M364.607 390.727C368.682 389.261 375.577 382.452 375.572 382.437C375.648 382.364 369.704 379.261 369.31 379.107C364.707 377.338 354.782 376.625 351.306 380.926C348.811 384.013 349.929 388.392 353.118 390.474C356.385 392.598 361.151 391.965 364.607 390.727Z" fill="#9FCD00"/>
<path d="M240.861 309.403C240.928 309.471 243.689 303.354 243.802 302.953C245.293 298.259 245.419 288.308 240.922 285.108C237.685 282.789 233.397 284.171 231.496 287.473C229.561 290.847 230.479 295.571 231.928 298.96C233.629 302.914 240.848 309.394 240.861 309.403Z" fill="#9FCD00"/>
<path d="M275.276 279.684C269.971 278.178 262.276 284.481 259.53 288.585C259.296 288.938 256.241 294.901 256.332 294.909C256.332 294.909 256.423 294.916 256.448 294.935C255.219 295.924 253.926 297.002 252.529 298.199C249.967 300.43 247.099 302.982 244.155 305.961C241.211 308.941 238.087 312.254 235.121 316.046C232.132 319.842 229.202 323.987 226.729 328.653C226.705 328.713 226.682 328.773 226.654 328.811C226.964 327.221 227.638 322.751 227.659 322.4C227.852 317.47 225.357 307.84 220.166 305.934C216.431 304.551 212.652 307.028 211.712 310.71C210.743 314.487 212.871 318.787 215.159 321.678C217.753 324.923 225.768 329.025 226.406 329.346C224.079 333.808 222.072 338.576 220.295 343.509C219.279 346.327 218.34 349.201 217.439 352.102C217.659 350.717 217.835 349.475 217.84 349.306C218.034 344.376 215.53 334.759 210.347 332.84C206.613 331.457 202.833 333.934 201.894 337.616C200.925 341.393 203.053 345.692 205.341 348.583C207.667 351.502 214.437 355.136 216.242 356.062C215.909 357.173 215.555 358.287 215.222 359.398C213.636 364.737 212.075 370.095 210.385 375.282C209.789 377.111 209.13 378.893 208.492 380.672C208.681 379.439 208.837 378.414 208.842 378.244C209.036 373.315 206.541 363.684 201.349 361.778C197.615 360.395 193.835 362.873 192.895 366.555C191.926 370.332 194.055 374.631 196.342 377.522C198.569 380.311 204.785 383.722 206.914 384.842C206.202 386.644 205.48 388.459 204.71 390.182C204.149 391.341 203.702 392.505 203.069 393.631C202.47 394.764 201.893 395.892 201.304 397.012C200.103 399.12 198.869 401.3 197.653 403.321C196.81 404.74 195.997 406.065 195.152 407.407C195.76 405.588 196.897 402.008 196.959 401.705C197.583 398.491 197.333 393.051 195.68 388.976C195.77 388.501 195.825 388.02 195.836 387.546C195.867 383.733 192.85 380.379 188.898 380.728C183.396 381.22 178.485 389.883 177.416 394.687C177.351 394.968 176.998 398.126 176.823 400.121C176.749 398.931 176.705 397.781 176.615 396.561C176.46 394.137 176.24 391.725 176.013 389.134C175.863 387.889 175.709 386.623 175.542 385.348C175.41 384.078 175.115 382.767 174.897 381.455C174.34 378.436 173.636 375.407 172.85 372.358C174.973 372.221 182.479 371.622 185.755 369.901C189.009 368.185 192.687 365.095 193.319 361.25C193.931 357.487 191.464 353.716 187.491 353.473C181.987 353.135 175.821 360.938 174.02 365.526C173.911 365.813 172.996 369.244 172.525 371.142C172.041 369.312 171.571 367.491 171.01 365.663C169.427 360.387 167.65 355.086 165.907 349.791C165.369 348.173 164.853 346.55 164.337 344.928C165.095 344.893 174.039 344.36 177.709 342.44C180.963 340.723 184.641 337.634 185.273 333.789C185.885 330.026 183.417 326.255 179.445 326.012C173.941 325.674 167.775 333.476 165.974 338.064C165.841 338.412 164.515 343.36 164.255 344.638C163.112 341.064 162.004 337.495 161.065 333.932C159.744 329.017 158.732 324.129 158.1 319.302C158.457 319.288 167.788 318.781 171.55 316.812C174.805 315.096 178.483 312.006 179.115 308.161C179.727 304.398 177.259 300.627 173.287 300.384C167.782 300.046 161.616 307.848 159.816 312.437C159.697 312.737 158.693 316.508 158.251 318.311C158.081 318.306 158.103 318.302 157.934 318.296C157.313 313.131 157.369 308.044 157.648 303.291C157.809 300.535 158.105 297.914 158.459 295.373C160.213 295.454 168.207 295.764 171.782 294.353C175.21 293.012 179.193 290.333 180.234 286.589C181.265 282.914 179.206 278.896 175.296 278.216C169.86 277.271 162.878 284.354 160.58 288.721C160.451 288.956 159.457 291.502 158.746 293.383C158.928 292.241 159.089 291.046 159.278 289.947C159.989 285.831 160.89 282.122 161.726 278.827C162.214 276.961 162.688 275.276 163.148 273.717C164.911 272.898 171.96 269.544 174.443 266.697C176.858 263.917 179.172 259.716 178.372 255.905C177.595 252.169 173.924 249.54 170.135 250.739C164.873 252.405 161.934 261.921 161.919 266.844C161.922 267.27 162.667 273.932 162.751 273.895C162.751 273.895 162.835 273.859 162.856 273.855C162.385 275.349 161.888 276.958 161.385 278.737C160.48 282.021 159.5 285.732 158.699 289.841C157.884 293.941 157.113 298.437 156.728 303.23C156.334 308.035 156.165 313.118 156.687 318.367C156.698 318.433 156.709 318.499 156.716 318.542C156.087 317.051 154.205 312.947 154.019 312.641C151.466 308.423 144.061 301.771 138.686 303.029C134.815 303.938 133.02 308.087 134.267 311.678C135.541 315.365 139.694 317.78 143.197 318.921C147.139 320.202 156.094 319.195 156.81 319.111C157.336 324.112 158.281 329.202 159.53 334.298C160.238 337.214 161.047 340.125 161.89 343.041C161.309 341.777 160.773 340.641 160.691 340.487C158.138 336.269 150.733 329.617 145.358 330.875C141.487 331.784 139.692 335.933 140.939 339.524C142.213 343.211 146.366 345.626 149.869 346.766C153.419 347.921 161.064 347.21 163.085 346.999C163.427 348.111 163.746 349.227 164.088 350.339C165.725 355.674 167.371 360.996 168.828 366.259C169.349 368.117 169.78 369.966 170.219 371.803C169.695 370.677 169.257 369.727 169.166 369.585C166.613 365.367 159.208 358.715 153.833 359.973C149.962 360.882 148.167 365.031 149.414 368.622C150.688 372.309 154.841 374.724 158.344 375.864C161.739 376.966 168.797 376.374 171.206 376.133C171.6 378.034 172.007 379.944 172.315 381.803C172.494 383.087 172.75 384.292 172.863 385.588C172.995 386.858 173.127 388.128 173.256 389.376C173.41 391.799 173.597 394.284 173.688 396.662C173.769 398.3 173.817 399.876 173.864 401.452C173.378 399.6 172.34 395.986 172.215 395.703C170.326 391.151 164.017 383.453 158.517 383.89C154.548 384.208 152.146 388.019 152.836 391.769C153.539 395.607 157.263 398.621 160.549 400.28C164.164 402.098 172.812 402.49 173.885 402.526C173.96 405.143 174.01 407.684 174.013 410.076C174.055 418.393 173.778 425.324 173.513 430.165C173.507 430.334 173.489 430.494 173.483 430.664L177.182 431.289C177.197 430.972 177.202 430.668 177.214 430.329C177.367 425.428 177.508 418.418 177.273 410.021C177.205 407.37 177.082 404.526 176.926 401.62C177.609 401.474 181.469 400.634 184.96 399.395C187.224 402.886 193.765 407.647 194.606 408.249C193.232 410.464 191.86 412.623 190.541 414.627C185.977 421.592 181.932 427.213 179.028 431.108C178.909 431.273 178.809 431.413 178.687 431.557L182.757 432.256C185.532 428.326 189.199 422.936 193.292 416.385C194.707 414.141 196.166 411.699 197.65 409.196C198.637 409.595 206.716 412.72 210.782 412.51C214.455 412.308 219.09 411.06 221.273 407.824C223.413 404.674 222.739 400.202 219.247 398.318C214.388 395.706 205.517 400.203 201.95 403.622C201.748 403.824 199.714 406.261 198.457 407.827C199.061 406.795 199.65 405.81 200.247 404.735C201.461 402.636 202.601 400.504 203.839 398.211C204.394 397.086 204.958 395.948 205.531 394.798C206.121 393.678 206.607 392.407 207.147 391.195C208.354 388.378 209.43 385.448 210.455 382.482C212.303 383.536 218.895 387.177 222.584 387.545C226.252 387.917 231.012 387.356 233.651 384.505C236.241 381.696 236.26 377.2 233.077 374.805C228.672 371.477 219.212 374.589 215.177 377.423C214.927 377.61 212.261 379.96 210.829 381.286C211.432 379.502 212.035 377.717 212.596 375.883C214.193 370.61 215.634 365.205 217.104 359.84C217.55 358.194 218.022 356.566 218.48 354.929C219.129 355.316 226.884 359.81 231.007 360.218C234.675 360.59 239.435 360.029 242.087 357.187C244.668 354.391 244.696 349.882 241.512 347.487C237.107 344.159 227.647 347.271 223.612 350.105C223.31 350.312 219.482 353.719 218.555 354.636C219.575 351.03 220.621 347.443 221.794 343.947C223.411 339.13 225.257 334.478 227.389 330.128C227.688 330.303 235.765 335.046 239.98 335.463C243.647 335.835 248.408 335.273 251.069 332.419C253.65 329.623 253.677 325.114 250.494 322.719C246.089 319.391 236.629 322.503 232.594 325.337C232.332 325.515 229.414 328.108 228.05 329.367C227.909 329.267 227.935 329.285 227.804 329.172C230.133 324.519 232.987 320.318 235.849 316.51C237.506 314.304 239.204 312.283 240.908 310.362C242.326 311.397 248.84 316.061 252.589 316.858C256.188 317.623 260.991 317.594 263.929 315.053C266.817 312.555 267.322 308.079 264.433 305.355C260.413 301.57 250.675 303.616 246.351 305.992C246.125 306.119 243.871 307.704 242.266 308.868C243.056 308.007 243.839 307.103 244.605 306.303C247.472 303.268 250.277 300.671 252.784 298.381C254.223 297.099 255.54 295.961 256.793 294.911C258.706 295.202 266.447 296.294 270.078 295.291C273.634 294.31 277.871 292.083 279.314 288.453C280.716 284.986 279.107 280.77 275.276 279.684Z" fill="#9FCD00"/>
<path d="M144.61 290.717C148.229 293.097 157.812 294.525 157.821 294.512C157.925 294.529 156.84 287.912 156.727 287.504C155.379 282.762 149.993 274.395 144.466 274.195C140.499 274.052 137.668 277.575 137.916 281.376C138.179 285.264 141.545 288.696 144.61 290.717Z" fill="#9FCD00"/>
<path d="M121.928 117.71L162.84 398.142C163.374 401.833 68.1414 436.016 64.5719 437.114L56.2277 437.556C50.8277 437.693 47.0141 435.436 46.4039 430.799L7.27647 133.695C6.84934 130.462 9.10699 127.502 12.3409 127.045L115.247 112.707C118.466 112.249 121.455 114.491 121.928 117.71Z" fill="white" stroke="#263238" stroke-miterlimit="10" stroke-linecap="round" stroke-linejoin="round"/>
<path d="M133.598 116.184L174.51 396.616C175.044 400.308 172.817 403.846 169.247 404.929L67.882 436.031C63.4125 437.404 58.7752 434.429 58.165 429.792L18.9613 132.155C18.5342 128.921 20.7918 125.962 24.0257 125.504L126.932 111.166C130.135 110.724 133.125 112.951 133.598 116.184Z" fill="#263238" stroke="#263238" stroke-miterlimit="10" stroke-linecap="round" stroke-linejoin="round"/>
<path d="M109.099 407.263L131.63 399.743" stroke="white" stroke-width="2" stroke-miterlimit="10" stroke-linecap="round" stroke-linejoin="round"/>
<path d="M125.681 123.552L33.5446 139.217L68.8584 410.1L162.841 380.921L125.681 123.552Z" fill="#FFBC00" stroke="#263238" stroke-miterlimit="10" stroke-linecap="round" stroke-linejoin="round"/>
<path d="M493.54 117.71L452.628 398.142C452.094 401.833 547.327 436.016 550.896 437.114L559.24 437.556C564.64 437.693 568.454 435.436 569.064 430.799L608.192 133.695C608.619 130.462 606.361 127.502 603.127 127.045L500.221 112.707C497.003 112.249 494.013 114.491 493.54 117.71Z" fill="white" stroke="#263238" stroke-miterlimit="10" stroke-linecap="round" stroke-linejoin="round"/>
<path d="M481.87 116.184L440.958 396.616C440.424 400.308 442.651 403.846 446.221 404.929L547.571 436.031C552.04 437.404 556.678 434.429 557.288 429.792L596.507 132.155C596.934 128.921 594.676 125.962 591.442 125.504L488.536 111.166C485.333 110.724 482.343 112.951 481.87 116.184Z" fill="#263238" stroke="#263238" stroke-miterlimit="10" stroke-linecap="round" stroke-linejoin="round"/>
<path d="M479.567 397.608L501.03 404.578" stroke="white" stroke-width="2" stroke-miterlimit="10" stroke-linecap="round" stroke-linejoin="round"/>
<path d="M489.787 123.552L581.924 139.217L546.61 410.1L452.628 380.921L489.787 123.552Z" fill="#FFBC00" stroke="#263238" stroke-miterlimit="10" stroke-linecap="round" stroke-linejoin="round"/>
<path d="M74.9905 250.978C80.3295 244.098 87.3465 239.919 95.0195 239.919C111.784 239.919 125.36 259.84 125.36 284.428C125.36 305.356 115.521 322.912 102.25 327.671" stroke="#263238" stroke-miterlimit="10" stroke-linecap="round" stroke-linejoin="round"/>
<path d="M68.1108 263.79C69.1939 260.755 70.5058 257.933 72.0159 255.371" stroke="#263238" stroke-miterlimit="10" stroke-linecap="round" stroke-linejoin="round"/>
<path d="M95.0195 328.922C78.255 328.922 64.6786 309.001 64.6786 284.413C64.6786 278.922 65.3498 273.674 66.6006 268.809" stroke="#263238" stroke-miterlimit="10" stroke-linecap="round" stroke-linejoin="round"/>
<path d="M529.952 246.402C524.613 239.522 517.596 235.343 509.923 235.343C493.158 235.343 479.567 255.264 479.567 279.852C479.567 300.78 489.406 318.336 502.677 323.095" stroke="#263238" stroke-miterlimit="10" stroke-linecap="round" stroke-linejoin="round"/>
<path d="M536.832 259.215C535.749 256.179 534.437 253.357 532.927 250.795" stroke="#263238" stroke-miterlimit="10" stroke-linecap="round" stroke-linejoin="round"/>
<path d="M509.938 324.346C526.703 324.346 540.279 304.425 540.279 279.837C540.279 274.346 539.608 269.098 538.357 264.233" stroke="#263238" stroke-miterlimit="10" stroke-linecap="round" stroke-linejoin="round"/>
<path d="M475.052 131.239C475.052 131.239 487.652 113.118 507.909 118.96C528.182 124.802 538.616 138.622 537.091 153.052C535.55 167.481 531.874 184.687 542.003 188.363C552.132 192.054 567.188 186.822 575.486 198.491C583.785 210.16 587.156 228.281 575.181 243.641C563.206 259.001 536.786 262.982 516.833 251.008C496.865 239.034 482.74 223.674 482.435 201.557C482.13 179.44 488.582 169.312 487.041 156.712C485.501 144.128 482.13 143.198 482.13 143.198L475.052 131.239Z" fill="#263238" stroke="#263238" stroke-miterlimit="10" stroke-linecap="round" stroke-linejoin="round"/>
<path d="M504.828 150.397C509.847 161.304 500.984 184.885 500.221 194.281C498.162 219.937 508.428 241.994 536.649 246.6C564.869 251.222 576.157 228.128 573.076 216.841C570.895 208.863 558.706 211.197 557.684 221.966C556.662 232.735 566.913 227.091 567.432 225.047" stroke="white" stroke-width="0.75" stroke-miterlimit="10" stroke-linecap="round" stroke-linejoin="round"/>
<path d="M478.682 145.044C478.682 145.044 490.077 139.354 500.526 145.76" stroke="white" stroke-width="0.75" stroke-miterlimit="10" stroke-linecap="round" stroke-linejoin="round"/>
<path d="M547.083 230.706C550.103 229.745 552.056 228.662 552.056 228.662" stroke="white" stroke-width="0.75" stroke-miterlimit="10" stroke-linecap="round" stroke-linejoin="round"/>
<path d="M475.097 143C475.097 143 491.511 130.172 509.984 134.793C528.457 139.415 529.479 164.553 522.813 179.928C516.147 195.319 513.065 214.294 524.354 226.1C529.418 231.393 535.52 232.46 540.706 232.018" stroke="white" stroke-width="0.75" stroke-miterlimit="10" stroke-linecap="round" stroke-linejoin="round"/>
<path d="M457.539 198.491C457.539 198.491 443.719 196.035 436.961 199.727C430.204 203.418 391.198 232.582 391.198 232.582L358.035 207.399V223.674C358.035 223.674 381.069 251.313 387.827 253.159C394.585 255.005 441.889 228.891 441.889 228.891C441.889 228.891 440.043 254.379 443.124 259.916C446.19 265.438 460.941 270.044 472.916 275.276C484.891 280.493 497.491 294.938 504.859 298.309C512.226 301.68 518.069 300.764 523.286 286.335C528.503 271.905 522.05 262.387 520.22 258.391C518.374 254.394 506.399 233.818 495.95 219.693C485.485 205.553 457.539 198.491 457.539 198.491Z" fill="white"/>
<path opacity="0.1" d="M504.539 284.032C500.146 278.662 506.98 271.829 512.349 267.451C517.719 263.058 488.445 266.475 486.981 264.035C485.517 261.594 493.327 257.201 497.72 253.296C502.113 249.391 484.83 257.582 474.793 251.832C464.755 246.081 458.699 247.927 458.699 247.927C458.699 247.927 469.439 233.299 471.879 224.513C474.32 215.727 470.415 214.263 470.415 214.263L467.547 201.694C461.781 199.574 457.571 198.491 457.571 198.491C457.571 198.491 443.75 196.035 436.992 199.727C430.235 203.418 391.229 232.582 391.229 232.582L358.066 207.399V223.674C358.066 223.674 381.1 251.313 387.858 253.159C394.616 255.005 441.92 228.891 441.92 228.891C441.92 228.891 440.074 254.379 443.155 259.916C446.221 265.438 460.972 270.044 472.947 275.276C484.922 280.493 497.522 294.938 504.89 298.309C510.885 301.054 515.873 300.963 520.327 293.062C515.491 290.072 507.33 287.448 504.539 284.032Z" fill="#FFBC00"/>
<path d="M457.539 198.491C457.539 198.491 443.719 196.035 436.961 199.727C430.204 203.418 391.198 232.582 391.198 232.582L358.035 207.399V223.674C358.035 223.674 381.069 251.313 387.827 253.159C394.585 255.005 441.889 228.891 441.889 228.891C441.889 228.891 440.043 254.379 443.124 259.916C446.19 265.438 460.941 270.044 472.916 275.276C484.891 280.493 497.491 294.938 504.859 298.309C512.226 301.68 518.069 300.764 523.286 286.335C528.503 271.905 522.05 262.387 520.22 258.391C518.374 254.394 506.399 233.818 495.95 219.693C485.485 205.553 457.539 198.491 457.539 198.491Z" stroke="#263238" stroke-miterlimit="10" stroke-linecap="round" stroke-linejoin="round"/>
<path d="M484.814 257.567C484.814 257.567 497.018 256.805 505.408 252.229" stroke="#263238" stroke-miterlimit="10" stroke-linecap="round" stroke-linejoin="round"/>
<path d="M481.001 260.618C481.001 260.618 497.781 262.906 510.747 260.618" stroke="#263238" stroke-miterlimit="10" stroke-linecap="round" stroke-linejoin="round"/>
<path d="M426.848 217.909L441.873 228.891L415.407 221.722" stroke="#263238" stroke-miterlimit="10" stroke-linecap="round" stroke-linejoin="round"/>
<path d="M452.109 201.527C452.109 201.527 449.516 213.989 453.665 222.286C457.814 230.584 464.053 232.674 468.721 226.435C473.389 220.212 474.426 205.157 466.128 200.993C457.829 196.844 453.665 199.437 452.109 201.527Z" fill="#263238" stroke="#263238" stroke-miterlimit="10" stroke-linecap="round" stroke-linejoin="round"/>
<path d="M148.547 185.968C148.547 185.968 140.996 183.268 126.688 197.027C112.379 210.785 98.345 224.544 89.4517 239.934C80.5431 255.309 76.2261 277.976 75.1431 291.75C74.06 305.508 87.4228 320.883 105.728 315.545C116.467 312.418 152.04 264.233 157.715 256.667C163.39 249.117 169.049 239.66 169.049 239.66C169.049 239.66 198.734 267.451 209.534 272.317C220.334 277.167 237.327 273.934 237.327 273.934L238.136 255.584C238.136 255.584 222.21 252.884 220.868 252.076C219.526 251.267 196.583 225.367 184.7 211.06C172.832 196.752 164.732 187.859 158.798 185.693C152.864 183.527 148.547 185.968 148.547 185.968Z" fill="white"/>
<path opacity="0.1" d="M184.715 211.06C176.096 200.672 169.476 193.152 164.213 188.988C163.832 189.034 163.451 189.08 163.084 189.141C146.518 192.267 137.122 221.828 137.122 221.828C137.122 221.828 136.222 236.609 134.879 242.863C133.537 249.132 120.555 229.882 120.555 234.809C120.555 239.736 129.952 248.689 131.294 250.474C132.637 252.259 127.267 249.132 124.582 248.232C121.898 247.332 114.286 270.608 111.601 275.093C108.916 279.562 78.4685 290.758 80.7109 293.9C82.9533 297.027 100.404 289.873 100.404 289.873C100.404 289.873 95.9348 295.7 85.6228 301.069C82.9686 302.457 80.8787 304.379 79.3838 306.56C84.616 314.05 94.1805 318.916 105.713 315.545C116.452 312.418 152.025 264.233 157.7 256.667C163.374 249.117 169.034 239.659 169.034 239.659C169.034 239.659 198.719 267.451 209.519 272.317C220.319 277.167 237.312 273.934 237.312 273.934L238.121 255.584C238.121 255.584 222.195 252.884 220.853 252.076C219.526 251.267 196.583 225.367 184.715 211.06Z" fill="#FFBC00"/>
<path d="M148.547 185.968C148.547 185.968 140.996 183.268 126.688 197.027C112.379 210.785 98.345 224.544 89.4517 239.934C80.5431 255.309 76.2261 277.976 75.1431 291.75C74.06 305.508 87.4228 320.883 105.728 315.545C116.467 312.418 152.04 264.233 157.715 256.667C163.39 249.117 169.049 239.66 169.049 239.66C169.049 239.66 198.734 267.451 209.534 272.317C220.334 277.167 237.327 273.934 237.327 273.934L238.136 255.584C238.136 255.584 222.21 252.884 220.868 252.076C219.526 251.267 196.583 225.367 184.7 211.06C172.832 196.752 164.732 187.859 158.798 185.693C152.864 183.527 148.547 185.968 148.547 185.968Z" stroke="#263238" stroke-miterlimit="10" stroke-linecap="round" stroke-linejoin="round"/>
<path d="M88.2008 272.82C88.2008 272.82 95.828 276.634 103.455 271.295" stroke="#263238" stroke-miterlimit="10" stroke-linecap="round" stroke-linejoin="round"/>
<path d="M80.5736 284.26C80.5736 284.26 100.404 285.023 109.557 272.82" stroke="#263238" stroke-miterlimit="10" stroke-linecap="round" stroke-linejoin="round"/>
<path d="M188.117 229.348L169.064 239.66L193.456 236.975" stroke="#263238" stroke-miterlimit="10" stroke-linecap="round" stroke-linejoin="round"/>
<path d="M145.496 183.406C145.496 183.406 131.508 190.651 130.989 196.356C130.471 202.06 129.571 211.365 133.201 221.722C136.832 232.079 143.422 239.339 146.533 238.821C149.645 238.302 158.447 229.501 159.484 209.306C160.506 189.11 154.298 183.406 145.496 183.406Z" fill="#263238" stroke="#263238" stroke-miterlimit="10" stroke-linecap="round" stroke-linejoin="round"/>
<path d="M342.979 329.319L348.517 324.941" stroke="#263238" stroke-miterlimit="10" stroke-linecap="round" stroke-linejoin="round"/>
<path d="M152.864 177.594C152.864 177.594 147.189 184.336 143.147 188.393C139.105 192.436 137.213 192.436 137.213 200.26C137.213 208.085 140.539 228.266 145.405 229.349C150.256 230.431 170.147 201.069 170.147 201.069L163.13 174.086C163.13 174.086 155.564 173.827 152.864 177.594Z" fill="white"/>
<path opacity="0.1" d="M156.83 199.879C155.137 211.685 149.889 219.113 142.918 227.045C143.696 228.311 144.52 229.15 145.405 229.348C150.256 230.431 170.147 201.069 170.147 201.069L165.434 182.933L161.757 179.745C161.742 179.745 158.615 187.356 156.83 199.879Z" fill="#FFBC00"/>
<path d="M152.864 177.594C152.864 177.594 147.189 184.336 143.147 188.393C139.105 192.436 137.213 192.436 137.213 200.26C137.213 208.085 140.539 228.266 145.405 229.349C150.256 230.431 170.147 201.069 170.147 201.069L163.13 174.086C163.13 174.086 155.564 173.827 152.864 177.594Z" stroke="#263238" stroke-miterlimit="10" stroke-linecap="round" stroke-linejoin="round"/>
<path d="M199.161 157.627C200.442 160.861 200.625 164.567 200.625 169.235C200.625 174.634 199.009 179.226 199.817 181.651C200.625 184.076 204.668 187.325 203.6 189.75C202.517 192.176 196.309 193.533 196.309 194.342C196.309 195.15 191.992 205.141 189.291 209.458C186.591 213.774 180.124 211.883 170.666 208.115C161.223 204.332 159.866 197.316 158.798 192.74C157.715 188.149 159.606 171.965 160.14 160.357C160.43 154.195 161.681 149.787 167.707 147.056C175.502 143.518 185.051 144.738 192.068 149.497C195.851 152.044 197.971 154.622 199.161 157.627Z" fill="white"/>
<path opacity="0.1" d="M200.641 169.236C200.641 164.568 200.458 160.861 199.176 157.628C197.986 154.638 195.866 152.045 192.083 149.483C186.515 145.7 179.33 144.159 172.71 145.471L173.839 156.026C173.839 156.026 181.008 157.368 187.263 161.853C193.532 166.322 194.051 171.371 192.663 179.379C191.29 187.372 194.875 190.056 191.29 198.125C187.705 206.179 188.163 208.421 180.551 208.421C172.939 208.421 164.884 201.252 161.3 196.341C160.339 195.014 159.545 193.976 158.89 193.122C159.256 194.693 159.683 196.524 160.445 198.385C160.934 199.33 161.437 200.307 161.986 201.329C163.664 203.906 166.288 206.362 170.681 208.116C180.124 211.899 186.607 213.79 189.307 209.459C192.007 205.142 196.324 195.151 196.324 194.342C196.324 193.534 202.532 192.177 203.615 189.751C204.698 187.326 200.641 184.077 199.832 181.652C199.008 179.211 200.641 174.635 200.641 169.236Z" fill="#FFBC00"/>
<path d="M199.161 157.627C200.442 160.861 200.625 164.567 200.625 169.235C200.625 174.634 199.009 179.226 199.817 181.651C200.625 184.076 204.668 187.325 203.6 189.75C202.517 192.176 196.309 193.533 196.309 194.342C196.309 195.15 191.992 205.141 189.291 209.458C186.591 213.774 180.124 211.883 170.666 208.115C161.223 204.332 159.866 197.316 158.798 192.74C157.715 188.149 159.606 171.965 160.14 160.357C160.43 154.195 161.681 149.787 167.707 147.056C175.502 143.518 185.051 144.738 192.068 149.497C195.851 152.044 197.971 154.622 199.161 157.627Z" stroke="#263238" stroke-miterlimit="10" stroke-linecap="round" stroke-linejoin="round"/>
<path d="M194.005 179.44C193.898 181.301 193.212 182.765 192.48 182.735C191.747 182.689 191.244 181.148 191.351 179.287C191.458 177.426 192.144 175.962 192.876 175.993C193.608 176.023 194.112 177.579 194.005 179.44Z" fill="#222220"/>
<path d="M179.59 191.094C179.59 191.094 180.398 195.944 186.881 196.493" stroke="#263238" stroke-miterlimit="10" stroke-linecap="round" stroke-linejoin="round"/>
<path d="M188.483 172.195C188.483 172.195 191.992 168.153 196.583 170.578" stroke="#263238" stroke-miterlimit="10" stroke-linecap="round" stroke-linejoin="round"/>
<path d="M159.073 173.827C159.073 173.827 163.39 175.993 164.198 172.744C165.007 169.51 164.595 167.634 166.746 166.81C168.912 166.002 176.6 165.178 175.532 160.327C174.449 155.477 172.39 154.699 175.898 153.082C179.407 151.465 185.524 154.867 194.966 159.184C204.409 163.5 213.576 159.245 216.81 153.57C220.044 147.896 218.168 130.675 205.751 130.675C197.544 130.675 195.546 133.756 193.654 134.565C191.763 135.373 177.393 127.152 162.017 130.385C146.64 133.619 143.147 155.462 145.298 162.204C147.464 168.961 149.096 181.911 159.073 173.827Z" fill="#263238" stroke="#263238" stroke-miterlimit="10" stroke-linecap="round" stroke-linejoin="round"/>
<path d="M208.558 153.037C207.475 154.47 205.797 155.538 203.204 155.813C193.456 156.835 183.708 148.628 174.48 145.547C165.251 142.466 150.362 146.569 145.756 155.813C145.756 155.813 153.962 148.125 166.791 153.753" stroke="white" stroke-width="0.75" stroke-miterlimit="10" stroke-linecap="round" stroke-linejoin="round"/>
<path d="M209.87 142.481C209.87 142.481 210.632 145.562 210.19 148.766" stroke="white" stroke-width="0.75" stroke-miterlimit="10" stroke-linecap="round" stroke-linejoin="round"/>
<path d="M161.239 177.335C161.239 177.335 158.813 166.002 155.564 164.385C152.33 162.768 147.739 163.043 147.205 171.401C146.671 179.76 151.247 183.818 153.688 184.351C156.113 184.885 159.896 182.735 159.896 182.735" fill="white"/>
<path d="M161.239 177.335C161.239 177.335 158.813 166.002 155.564 164.385C152.33 162.768 147.739 163.043 147.205 171.401C146.671 179.76 151.247 183.818 153.688 184.351C156.113 184.885 159.896 182.735 159.896 182.735" stroke="#263238" stroke-miterlimit="10" stroke-linecap="round" stroke-linejoin="round"/>
<path d="M380.933 188H236.187C216.196 188 200 203.464 200 222.533V290.689C200 307.266 212.245 321.117 228.582 324.454L220.947 347.032L256.334 325.222H380.933C400.924 325.222 417.12 309.757 417.12 290.689V222.533C417.12 203.449 400.924 188 380.933 188Z" fill="#FFBC00" stroke="#263238" stroke-width="2" stroke-miterlimit="10"/>
<path d="M223.565 233.892H386.296" stroke="#263238" stroke-width="2.0641" stroke-miterlimit="10" stroke-linecap="round"/>
<path d="M223.565 250.626H386.296" stroke="#263238" stroke-width="2.0641" stroke-miterlimit="10" stroke-linecap="round"/>
<path d="M223.565 267.359H386.296" stroke="#263238" stroke-width="2.0641" stroke-miterlimit="10" stroke-linecap="round"/>
<path d="M223.565 284.093H386.296" stroke="#263238" stroke-width="2.0641" stroke-miterlimit="10" stroke-linecap="round"/>
<path d="M242.728 321.158C242.728 321.158 251.361 314.95 256.228 311.442C261.079 307.934 265.136 309.017 268.096 310.1C271.07 311.183 279.43 313.608 280.238 313.608C281.046 313.608 280.513 315.499 278.072 316.308C275.646 317.116 271.863 316.582 269.163 316.308C266.463 316.033 264.038 317.391 264.038 317.391C264.038 317.391 276.455 319.557 279.689 320.625C282.923 321.708 287.514 323.599 286.172 324.941C284.83 326.284 283.197 327.641 282.13 327.916C281.046 328.19 279.155 326.833 275.646 328.45C272.138 330.066 264.846 332.232 261.338 332.232C257.829 332.232 242.712 327.916 242.712 327.916V321.158H242.728Z" fill="white" stroke="#263238" stroke-miterlimit="10" stroke-linecap="round" stroke-linejoin="round"/>
<path d="M90.7941 256.927C90.7941 256.927 122.905 315.21 130.196 327.092C137.488 338.959 145.039 340.042 149.356 340.042C153.673 340.042 242.728 327.9 242.728 327.9V321.158C242.728 321.158 198.475 318.992 185.783 316.308C173.107 313.608 154.206 312.525 154.206 312.525C154.206 312.525 136.679 261.243 129.662 251.268C122.645 241.277 112.394 239.401 112.394 239.401" fill="white"/>
<path opacity="0.1" d="M154.222 312.525C154.222 312.525 136.679 261.258 129.662 251.268C129.235 250.657 128.777 250.063 128.32 249.513C129.891 255.142 134.147 270.395 136.679 278.678C139.806 288.974 143.849 294.343 141.149 295.243C138.464 296.143 119.655 275.551 122.34 283.605C125.025 291.658 147.861 308.681 147.861 310.466C147.861 312.25 137.564 313.15 142.491 315.835C147.418 318.519 156.373 317.619 156.373 317.619C156.373 317.619 143.834 323.889 147.861 325.231C151.888 326.573 163.527 318.062 165.769 318.062C167.691 318.062 214.98 325.353 233.88 329.09C239.341 328.342 242.728 327.885 242.728 327.885V321.143C242.728 321.143 198.475 318.977 185.783 316.292C173.107 313.608 154.222 312.525 154.222 312.525Z" fill="#FFBC00"/>
<path d="M90.7941 256.927C90.7941 256.927 122.905 315.21 130.196 327.092C137.488 338.959 145.039 340.042 149.356 340.042C153.673 340.042 242.728 327.9 242.728 327.9V321.158C242.728 321.158 198.475 318.992 185.783 316.308C173.107 313.608 154.206 312.525 154.206 312.525C154.206 312.525 136.679 261.243 129.662 251.268C122.645 241.277 112.394 239.401 112.394 239.401" stroke="#263238" stroke-miterlimit="10" stroke-linecap="round" stroke-linejoin="round"/>
<path d="M469.514 234.733L425.596 285.099L361.101 304.44C361.101 304.44 343.909 302.9 339.913 302.595C335.916 302.29 332.85 305.356 330.394 307.811C327.938 310.267 321.79 312.418 323.026 314.264C324.262 316.109 326.397 315.179 330.394 313.959C334.391 312.723 337.152 312.113 337.152 312.113C337.152 312.113 323.941 324.392 320.57 327.778C317.199 331.149 317.809 332.995 319.96 332.995C322.111 332.995 333.78 322.241 333.78 322.241C333.78 322.241 330.089 326.543 327.938 329.913C325.787 333.284 322.721 336.061 324.872 336.671C327.023 337.281 335.931 328.998 335.931 328.998L340.233 326.237C340.233 326.237 333.17 334.215 334.711 335.145C336.252 336.061 343.009 329.303 343.009 329.303C343.009 329.303 354.069 325.612 357.135 321.936C360.201 318.245 362.047 315.789 362.047 315.789C362.047 315.789 396.75 309.337 409.656 307.186C422.561 305.035 437.602 303.19 443.139 298.278C448.661 293.367 492.273 251.908 494.424 246.371" fill="white"/>
<path opacity="0.1" d="M443.063 274.269C441.462 273.949 450.751 258.97 457.357 248.674L425.597 285.099L361.102 304.44C361.102 304.44 353.764 303.784 347.556 303.251C347.784 304.639 347.937 305.493 347.937 305.493L353.795 315.743C353.795 315.743 421.128 293.794 424.041 293.794C426.97 293.794 426.97 294.77 430.387 295.746C433.804 296.722 430.875 291.841 430.875 291.841C430.875 291.841 439.173 290.865 444.543 288.913C449.913 286.96 431.851 287.448 434.78 285.984C437.709 284.52 464.541 269.404 470.399 259.153C476.257 248.903 445.504 274.757 443.063 274.269Z" fill="#FFBC00"/>
<path d="M330.379 307.827C327.923 310.282 321.776 312.433 323.011 314.279C324.247 316.124 326.382 315.194 330.379 313.974C334.376 312.738 337.137 312.128 337.137 312.128C337.137 312.128 323.927 324.407 320.555 327.793C317.184 331.164 317.794 333.01 319.945 333.01C322.096 333.01 333.766 322.256 333.766 322.256C333.766 322.256 330.074 326.558 327.923 329.929C325.772 333.3 322.706 336.076 324.857 336.686C327.008 337.296 335.916 329.013 335.916 329.013L340.218 326.253C340.218 326.253 333.155 334.23 334.696 335.161C336.237 336.076 342.994 329.319 342.994 329.319C342.994 329.319 354.054 325.627 357.12 321.951C360.186 318.26 362.032 315.804 362.032 315.804L361.117 304.44C361.117 304.44 343.91 302.9 339.928 302.595C335.916 302.305 332.835 305.371 330.379 307.827Z" fill="white" stroke="#263238" stroke-miterlimit="10" stroke-linecap="round" stroke-linejoin="round"/>
<path d="M423.751 147.209C423.751 147.209 420.06 154.882 420.99 162.875C421.905 170.852 422.226 174.848 420.685 176.999C419.144 179.15 416.688 178.235 416.993 182.216C417.298 186.212 422.21 187.737 422.21 187.737C422.21 187.737 428.968 200.947 431.424 203.708C433.88 206.468 437.266 205.248 440.027 204.013C442.788 202.777 448.326 200.016 448.326 200.016C448.326 200.016 455.389 218.442 458.775 222.744C462.146 227.045 464.923 221.203 465.838 216.292C466.753 211.38 467.378 200.321 465.838 196.63C464.297 192.939 459.995 183.421 459.995 183.421C459.995 183.421 468.904 182.185 474.426 170.211C479.948 158.238 468.278 142.572 451.392 138.881C434.505 135.236 425.597 142.908 423.751 147.209Z" fill="white"/>
<path opacity="0.1" d="M455.755 185.48C455.755 185.48 452.826 193.778 451.361 195.73C449.897 197.682 437.693 202.564 432.827 199.635C427.946 196.706 425.505 187.92 425.993 180.614C426.482 173.292 423.553 165.01 429.899 161.593C436.244 158.176 447.944 160.617 447.944 160.617L461.124 155.248L431.851 146.462C431.851 146.462 427.626 147.941 422.607 150.184C421.615 153.143 420.426 157.948 421.005 162.874C421.92 170.852 422.241 174.848 420.7 176.999C419.159 179.15 416.704 178.235 417.009 182.216C417.314 186.212 422.226 187.737 422.226 187.737C422.226 187.737 428.983 200.947 431.439 203.708C433.895 206.468 437.282 205.248 440.043 204.013C442.804 202.777 448.341 200.016 448.341 200.016C448.341 200.016 455.404 218.442 458.79 222.744C460.392 224.772 461.841 224.528 463.046 223.201C460.789 210.724 455.755 185.48 455.755 185.48Z" fill="#FFBC00"/>
<path d="M428.205 176.999C428.795 176.999 429.273 175.763 429.273 174.238C429.273 172.713 428.795 171.477 428.205 171.477C427.616 171.477 427.137 172.713 427.137 174.238C427.137 175.763 427.616 176.999 428.205 176.999Z" fill="#222220"/>
<path d="M425.902 167.176C425.902 167.176 430.204 162.875 432.66 169.327" stroke="#263238" stroke-miterlimit="10" stroke-linecap="round" stroke-linejoin="round"/>
<path d="M429.594 192.359C429.594 192.359 437.572 192.054 438.807 185.297" stroke="#263238" stroke-miterlimit="10" stroke-linecap="round" stroke-linejoin="round"/>
<path d="M462.116 166.978C459.614 166.505 457.219 168.107 456.411 170.532C455.74 172.53 454.397 174.711 451.697 174.543C446.785 174.238 447.395 165.941 445.55 162.264C443.704 158.573 437.572 158.573 426.512 157.658C415.453 156.743 406.849 156.743 407.78 142.603C408.695 128.478 417.604 118.655 423.751 120.181C429.899 121.706 428.053 128.158 428.053 128.158C428.053 128.158 447.716 118.64 464.297 123.247C480.879 127.853 484.875 143.518 484.265 158.253C483.655 172.988 476.287 181.59 471.36 183.741C466.448 185.892 462.757 189.263 460.606 188.653C458.455 188.043 457.54 183.131 459.37 181.59C461.216 180.05 466.738 173.293 465.212 169.312C464.663 167.878 463.443 167.222 462.116 166.978Z" fill="#263238" stroke="#263238" stroke-miterlimit="10" stroke-linecap="round" stroke-linejoin="round"/>
<path d="M420.197 143C420.197 143 414.553 154.287 427.382 154.806C440.211 155.324 456.106 146.599 467.912 150.184C479.704 153.768 480.741 164.552 477.66 171.721" stroke="white" stroke-width="0.75" stroke-miterlimit="10" stroke-linecap="round" stroke-linejoin="round"/>
<path d="M441.751 141.459C441.751 141.459 474.579 128.631 479.719 147.621" stroke="white" stroke-width="0.75" stroke-miterlimit="10" stroke-linecap="round" stroke-linejoin="round"/>
<path d="M321.12 185.215C321.12 185.215 318.42 183.598 316.803 185.749C315.186 187.915 313.02 191.423 313.828 193.299C314.637 195.191 317.337 191.683 318.954 189.791C320.586 187.915 320.845 187.381 321.12 185.215Z" fill="white" stroke="#263238" stroke-miterlimit="10" stroke-linecap="round" stroke-linejoin="round"/>
<path d="M325.437 184.407C325.437 184.407 322.737 181.982 321.12 185.215C319.503 188.449 320.311 196.015 321.654 196.823C322.996 197.632 323.82 197.357 324.888 193.315C325.971 189.273 326.52 187.656 325.437 184.407Z" fill="white" stroke="#263238" stroke-miterlimit="10" stroke-linecap="round" stroke-linejoin="round"/>
<path d="M329.754 184.148C329.754 184.148 327.054 181.722 325.437 184.956C323.82 188.19 324.628 195.755 325.971 196.564C327.313 197.372 328.137 197.098 329.204 193.055C330.303 188.998 330.837 187.381 329.754 184.148Z" fill="white" stroke="#263238" stroke-miterlimit="10" stroke-linecap="round" stroke-linejoin="round"/>
<path d="M334.071 183.873C334.071 183.873 331.371 181.448 329.754 184.682C328.137 187.915 328.945 195.481 330.288 196.289C331.63 197.098 332.454 196.823 333.521 192.781C334.62 188.724 335.154 187.107 334.071 183.873Z" fill="white" stroke="#263238" stroke-miterlimit="10" stroke-linecap="round" stroke-linejoin="round"/>
</g>
<defs>
<linearGradient id="paint0_linear" x1="0.000854492" y1="-0.00366211" x2="671.201" y2="358.258" gradientUnits="userSpaceOnUse">
<stop stop-color="#FFBA00"/>
<stop offset="0.474707" stop-color="#FFCE44"/>
<stop offset="1" stop-color="#FFB900"/>
</linearGradient>
<clipPath id="clip0">
<rect width="609" height="495" fill="white"/>
</clipPath>
</defs>
</svg>
