<?xml version="1.0" encoding="utf-8"?>
<!-- Generator: Adobe Illustrator 22.1.0, SVG Export Plug-In . SVG Version: 6.00 Build 0)  -->
<svg version="1.1" id="Слой_1" xmlns="http://www.w3.org/2000/svg" xmlns:xlink="http://www.w3.org/1999/xlink" x="0px" y="0px"
	 viewBox="0 0 1440 754.4" style="enable-background:new 0 0 1440 754.4;" xml:space="preserve">
<style type="text/css">
	.st0{fill:url(#SVGID_1_);filter:url(#Adobe_OpacityMaskFilter);}
	.st1{mask:url(#mask0_1_);}
	.st2{opacity:0.2;fill:#FFFFFF;enable-background:new    ;}
</style>
<defs>
	<filter id="Adobe_OpacityMaskFilter" filterUnits="userSpaceOnUse" x="-94.3" y="-16.6" width="1664.7" height="945.1">
		<feColorMatrix  type="matrix" values="1 0 0 0 0  0 1 0 0 0  0 0 1 0 0  0 0 0 1 0"/>
	</filter>
</defs>
<mask maskUnits="userSpaceOnUse" x="-94.3" y="-16.6" width="1664.7" height="945.1" id="mask0_1_">
	
		<linearGradient id="SVGID_1_" gradientUnits="userSpaceOnUse" x1="48.8626" y1="1031.5236" x2="1488.8625" y2="74.5236" gradientTransform="matrix(1 0 0 -1 0 958)">
		<stop  offset="0" style="stop-color:#FFBA00"/>
		<stop  offset="0.4747" style="stop-color:#FFC217"/>
		<stop  offset="1" style="stop-color:#FFB900"/>
	</linearGradient>
	<path class="st0" d="M0,0h1440v744.5c0,0-283,212.5-720,212.5S0,744.5,0,744.5V0z"/>
</mask>
<g class="st1">
	<path class="st2" d="M876.5,98.8l-37,9.1l-4-5.5l20.1-32.4l4.5,6.3l-4.5,7.1l8.3,11.5l8.2-2.1L876.5,98.8z M856.9,96.7l-5.2-7.2
		L845,99.7L856.9,96.7z M881,191.5l32.7,12.5l2.7-6.9l-32.7-12.5L881,191.5z M951.5,85l-27.3-21.9l5-6.2l17.1,2.4l-6-16.1l5-6.2
		l27.3,21.9l-4.6,5.7l-17.8-14.3l5.8,16.7l-0.1,0.1l-17.4-1.9L956,79.3L951.5,85z M1030.3,282.7l14.3-31.9l-6.8-3l-4.3,9.6l-5.1-2.3
		c-3.6-1.6-7-2-10.2-1.1c-3.2,0.9-5.6,3.2-7.2,6.7c-1.5,3.3-1.6,6.5-0.5,9.5s3.6,5.3,7.2,6.9L1030.3,282.7z M1025.4,261.2l5.3,2.4
		l-4.4,9.8l-5.2-2.3c-1.7-0.8-2.9-1.8-3.5-3.1c-0.6-1.3-0.5-2.7,0.1-4.2c0.7-1.5,1.7-2.4,3-2.9
		C1022.2,260.3,1023.7,260.4,1025.4,261.2z M1147.2,303.5c-5.4-1-9.7-3.8-12.9-8.2l5.3-4.5c2.7,3.4,5.7,5.4,9,6.1
		c1.5,0.3,2.7,0.2,3.7-0.2c1-0.4,1.5-1.2,1.8-2.2c0.2-1-0.1-1.9-0.9-2.6c-0.8-0.8-2.4-1.8-4.9-3c-1.8-0.9-3.2-1.6-4.3-2.3
		c-1.1-0.7-2.1-1.6-3-2.6c-0.9-1-1.5-2.1-1.7-3.4c-0.2-1.3-0.2-2.8,0.1-4.5c0.6-3.1,2.2-5.4,4.7-6.9c2.5-1.5,5.5-1.9,8.9-1.2
		c4.7,0.9,8.5,3.2,11.4,6.7l-4.9,5c-2.7-2.9-5.3-4.5-7.9-5.1c-1.3-0.3-2.5-0.2-3.3,0.3c-0.8,0.4-1.3,1.1-1.5,2
		c-0.2,1.1,0.1,2,0.9,2.8c0.8,0.7,2.6,1.8,5.4,3.1c3.4,1.7,5.8,3.4,7.2,5.3c1.4,1.9,1.8,4.2,1.3,7.1c-0.7,3.3-2.3,5.7-4.9,7.2
		C1153.9,303.8,1150.8,304.2,1147.2,303.5z M1150-6c2.3-5,6-8.5,11-10.6l3.1,6.2c-3.9,1.8-6.6,4.3-8,7.3c-0.6,1.4-0.8,2.6-0.7,3.6
		c0.2,1,0.8,1.8,1.7,2.2c0.9,0.4,1.8,0.3,2.8-0.2c1-0.5,2.3-1.9,4.1-4.1c1.3-1.5,2.3-2.7,3.3-3.6c1-0.9,2-1.6,3.2-2.3
		c1.2-0.6,2.4-0.9,3.7-0.9c1.3,0.1,2.8,0.5,4.3,1.2c2.9,1.3,4.7,3.4,5.6,6.2c0.8,2.8,0.5,5.8-0.9,8.9c-2,4.3-5.1,7.5-9.3,9.5
		l-3.7-5.9c3.4-1.9,5.7-4.1,6.8-6.5c0.6-1.2,0.8-2.3,0.5-3.3c-0.2-0.9-0.7-1.6-1.6-1.9c-1-0.5-2-0.4-2.9,0.2
		c-0.9,0.6-2.3,2.1-4.3,4.5c-2.4,2.9-4.7,4.8-6.9,5.7c-2.1,0.9-4.5,0.8-7.2-0.5c-3.1-1.4-5-3.6-5.8-6.4
		C1148.1,0.5,1148.5-2.6,1150-6z M1042.6,150.2l37-9.1l-4.4-6.1l-8.1,2.1l-8.4-11.5l4.6-7.1l-4.5-6.3l-20.1,32.4L1042.6,150.2z
		 M1054.7,131.8l5.2,7.2l-11.8,3.1L1054.7,131.8z M718,7.4L705,43.2l7.5-0.3l2.7-8l14.2-0.6l3.4,7.7l7.7-0.3L724.8,7.1L718,7.4z
		 M726.6,27.7l-8.9,0.4l4-11.5L726.6,27.7z M596.8,15.9l28.5-20.3l4.3,6l-28.5,20.3L596.8,15.9z M708.3,102.7L675,113.3l2.2,6.9
		l21.6-6.9l-11.3,13.4l0.1,0.2l17.1,4.5l-21.8,6.9l2.2,7l33.3-10.6l-2.4-7.6l-16.8-3.9l11.4-12.9L708.3,102.7z M485.4,99l-18.7-29.6
		l11.6-7.3c3.4-2.1,6.6-2.8,9.7-2.2s5.7,2.5,7.6,5.6c2.1,3.3,2.6,6.5,1.6,9.7c-1,3.2-3.2,5.8-6.5,7.9l-4.7,3l5.6,8.9L485.4,99z
		 M482.4,80.4l5-3.1c1.5-1,2.5-2.2,2.8-3.5c0.4-1.4,0.1-2.8-0.7-4.1c-0.9-1.4-2-2.3-3.4-2.5c-1.4-0.2-2.9,0.2-4.5,1.2l-4.8,3
		L482.4,80.4z M398.6,149c-5.5,0.2-10.1,2.3-14,6.2c-2.6,2.6-4,5.4-4.2,8.4c-0.2,3,0.9,5.7,3.3,8c2.1,2.1,4.3,3,6.6,2.9
		c2.3-0.1,5.1-1.1,8.4-3c2.7-1.6,4.5-2.5,5.6-2.7c1.1-0.3,2,0,2.8,0.8c0.7,0.7,0.9,1.4,0.8,2.4c-0.1,1-0.7,1.9-1.6,2.9
		c-1.9,1.9-4.7,3.2-8.6,3.8l1.4,6.8c4.6-0.4,8.6-2.4,11.9-5.8c2.4-2.5,3.7-5.2,3.9-8.1c0.2-2.9-0.9-5.5-3.2-7.7
		c-1.2-1.2-2.4-2.1-3.6-2.6c-1.2-0.5-2.5-0.6-3.8-0.4c-1.3,0.2-2.6,0.6-3.8,1.1c-1.2,0.5-2.6,1.3-4.3,2.3c-2.4,1.4-4.2,2.2-5.3,2.4
		c-1.1,0.2-1.9,0-2.7-0.7c-0.8-0.8-1-1.6-0.9-2.7c0.2-1,0.8-2.1,1.9-3.2c2.4-2.4,5.7-3.8,10.1-4.2L398.6,149z M643.5,344.1
		c1.1-5.4,0.2-10.4-2.7-15.1c-1.9-3.2-4.3-5.2-7.1-6.1c-2.8-0.9-5.7-0.5-8.6,1.3c-2.5,1.5-4,3.5-4.4,5.7c-0.4,2.3-0.1,5.3,1,8.9
		c0.9,3,1.3,5,1.3,6.1c0,1.1-0.5,1.9-1.4,2.5c-0.8,0.5-1.6,0.6-2.5,0.2c-0.9-0.3-1.7-1.1-2.5-2.3c-1.4-2.3-1.9-5.3-1.6-9.2l-7-0.2
		c-0.7,4.6,0.3,8.9,2.8,13c1.8,2.9,4.1,4.8,6.9,5.7c2.8,0.8,5.5,0.4,8.2-1.2c1.4-0.9,2.6-1.9,3.4-2.9c0.8-1.1,1.2-2.3,1.3-3.6
		c0.1-1.3,0.1-2.7-0.1-3.9c-0.2-1.3-0.6-2.8-1.2-4.7c-0.8-2.7-1.2-4.6-1.1-5.7c0-1.1,0.5-1.9,1.3-2.4c0.9-0.6,1.8-0.6,2.8-0.2
		c1,0.4,1.8,1.3,2.6,2.5c1.8,2.9,2.3,6.5,1.6,10.8L643.5,344.1z M557.3,188.9l12.9-35.8l6.8-0.3l15.8,34.6l-7.7,0.3l-3.4-7.7
		l-14.2,0.6l-2.7,8L557.3,188.9z M569.9,173.7l8.9-0.4l-4.9-11.2L569.9,173.7z M263,29l2.7,38l6.8-3.3l-0.7-8.4l12.7-6.3l6.2,5.7
		l6.9-3.4L269.1,26L263,29z M279,44.1l-8,3.9l-1-12.2L279,44.1z M155.6,85.8l17.9-30.1l6.4,3.8l-17.9,30.1L155.6,85.8z M292.7,120
		l-26.2,23.2l4.8,5.4l17-15.1l-4.9,16.8l0.1,0.1l17.5-2.8L284,162.9l4.9,5.5l26.2-23.2l-5.3-6l-16.9,3.2L298,126L292.7,120z
		 M87.4,207l-29.1-19.5l7.6-11.4c2.2-3.3,4.9-5.3,8-5.9c3.1-0.7,6.2,0,9.3,2.1c3.2,2.2,5,4.9,5.4,8.3c0.3,3.3-0.6,6.6-2.8,9.9
		l-3.1,4.7l8.7,5.8L87.4,207z M77.1,191.2l3.3-4.9c1-1.5,1.4-3,1.1-4.4c-0.2-1.4-1-2.6-2.4-3.5c-1.4-0.9-2.8-1.2-4.1-0.9
		c-1.4,0.4-2.6,1.3-3.6,2.9l-3.2,4.7L77.1,191.2z M28.4,287.9c-4.9,2.4-8.3,6.2-10.3,11.4c-1.3,3.5-1.5,6.6-0.5,9.4
		c1,2.8,3.1,4.8,6.3,6c2.7,1,5.2,1,7.2,0c2.1-1.1,4.2-3.1,6.5-6.2c1.8-2.5,3.1-4.1,4-4.8c0.9-0.7,1.8-0.8,2.9-0.4
		c0.9,0.3,1.4,0.9,1.7,1.8c0.3,0.9,0.2,2-0.3,3.3c-0.9,2.5-3,4.8-6.3,6.9l4.1,5.6c4-2.3,6.9-5.6,8.6-10.1c1.2-3.2,1.3-6.2,0.3-9
		c-1-2.7-3-4.6-6-5.8c-1.6-0.6-3-0.9-4.4-0.9c-1.3,0.1-2.5,0.4-3.6,1.1c-1.1,0.7-2.1,1.6-3,2.5c-0.9,0.9-1.9,2.2-3,3.8
		c-1.6,2.3-2.9,3.7-3.8,4.3c-0.9,0.6-1.8,0.8-2.7,0.4c-1-0.4-1.6-1.1-1.9-2.1c-0.3-1-0.1-2.2,0.4-3.6c1.2-3.2,3.7-5.8,7.5-7.9
		L28.4,287.9z M331.3,367c-1.2-5.3-4-9.6-8.6-12.7c-3.1-2.1-6.1-3-9-2.7c-3,0.3-5.4,1.9-7.3,4.7c-1.7,2.4-2.2,4.8-1.7,7
		c0.5,2.3,2,4.8,4.5,7.7c2,2.3,3.2,4,3.7,5c0.4,1,0.3,2-0.3,2.9c-0.5,0.8-1.3,1.2-2.2,1.2c-1,0.1-2-0.3-3.2-1.1
		c-2.2-1.5-3.9-4.1-5.3-7.8l-6.4,2.6c1.3,4.5,3.8,8,7.8,10.7c2.9,2,5.7,2.8,8.6,2.4c2.9-0.4,5.2-1.9,7-4.5c1-1.4,1.6-2.7,1.9-4
		c0.3-1.3,0.2-2.5-0.2-3.8c-0.4-1.3-1-2.5-1.7-3.5c-0.7-1.1-1.7-2.3-3-3.8c-1.8-2.1-2.9-3.7-3.3-4.8c-0.4-1-0.3-1.9,0.2-2.7
		c0.6-0.9,1.4-1.3,2.5-1.3c1.1,0,2.2,0.4,3.4,1.3c2.8,1.9,4.8,5,5.9,9.2L331.3,367z M189.6,260.1l-2.7-38l6.1-3l28.5,25.2l-6.9,3.4
		l-6.2-5.7l-12.7,6.3l0.7,8.4L189.6,260.1z M195,241.1l8-3.9l-9-8.2L195,241.1z M257.9,732.6l-36.4-11.1l0.7,7.5l8.1,2.3l1.3,14.1
		l-7.5,3.8l0.7,7.7l33.8-17.6L257.9,732.6z M238.1,742.3l-0.8-8.9l11.7,3.4L238.1,742.3z M243.2,612l21.7,27.4l-5.8,4.6l-21.7-27.4
		L243.2,612z M162.3,727.9l-12.4-32.7l-6.8,2.6l8,21.2l-14-10.5l-0.2,0.1l-3.6,17.3l-8.1-21.4l-6.9,2.6l12.3,32.7l7.5-2.8l3-17
		l13.5,10.7L162.3,727.9z M154.3,505.1l28.6-20.2l7.9,11.2c2.3,3.2,3.2,6.4,2.7,9.6c-0.5,3.2-2.2,5.8-5.2,7.9
		c-3.2,2.3-6.4,3-9.6,2.1c-3.2-0.9-6-2.9-8.2-6.1l-3.2-4.6l-8.6,6.1L154.3,505.1z M172.8,501.1l3.4,4.8c1.1,1.5,2.3,2.4,3.7,2.6
		c1.4,0.3,2.8,0,4.1-1c1.4-1,2.1-2.2,2.3-3.5c0.2-1.4-0.3-2.9-1.4-4.4l-3.3-4.7L172.8,501.1z M99.9,421.1c-0.5-5.4-2.8-10-6.9-13.7
		c-2.8-2.5-5.6-3.7-8.6-3.8c-3-0.1-5.6,1.2-7.9,3.7c-1.9,2.2-2.8,4.4-2.5,6.8c0.3,2.3,1.4,5.1,3.5,8.2c1.7,2.6,2.7,4.4,3,5.4
		c0.3,1,0.1,2-0.7,2.8c-0.6,0.7-1.4,1-2.3,0.9c-1-0.1-2-0.5-3-1.5c-2-1.8-3.4-4.6-4.2-8.4l-6.7,1.8c0.7,4.6,2.8,8.4,6.4,11.6
		c2.6,2.3,5.3,3.5,8.3,3.5c2.9,0,5.4-1.2,7.5-3.5c1.1-1.3,1.9-2.5,2.4-3.8c0.4-1.2,0.5-2.5,0.2-3.8c-0.3-1.3-0.7-2.6-1.3-3.7
		c-0.6-1.1-1.4-2.5-2.5-4.2c-1.5-2.4-2.4-4.1-2.7-5.1c-0.3-1-0.1-1.9,0.6-2.7c0.7-0.8,1.6-1.1,2.6-1c1,0.1,2.1,0.7,3.3,1.7
		c2.5,2.3,4.1,5.5,4.7,9.8L99.9,421.1z M-82.2,675.8c5.4,0.8,10.4-0.4,14.9-3.5c3.1-2.1,5-4.6,5.7-7.4c0.8-2.9,0.2-5.7-1.7-8.5
		c-1.7-2.4-3.7-3.8-6-4.1c-2.3-0.3-5.3,0.2-8.8,1.4c-2.9,1-4.9,1.6-6,1.6c-1.1,0.1-2-0.4-2.6-1.3c-0.5-0.8-0.7-1.6-0.4-2.5
		c0.3-0.9,1-1.8,2.1-2.6c2.2-1.5,5.2-2.2,9.1-2.1l-0.1-7c-4.6-0.4-8.9,0.7-12.8,3.4c-2.8,2-4.6,4.4-5.3,7.2
		c-0.7,2.8-0.1,5.5,1.7,8.1c1,1.4,2,2.5,3.1,3.2c1.1,0.7,2.3,1.1,3.6,1.1c1.3,0,2.7-0.1,3.9-0.3c1.2-0.3,2.8-0.8,4.7-1.5
		c2.7-0.9,4.5-1.4,5.6-1.4c1.1,0,1.9,0.4,2.5,1.2c0.6,0.9,0.7,1.8,0.4,2.8c-0.4,1-1.2,1.9-2.4,2.8c-2.8,1.9-6.3,2.7-10.7,2.2
		L-82.2,675.8z M68.3,581.6l36.4,11.1l0.6,6.8L71.6,617l-0.7-7.7l7.5-3.8l-1.3-14.1l-8.1-2.3L68.3,581.6z M84.1,593.4l0.8,8.9
		l10.9-5.5L84.1,593.4z M390.3,577.4l-36-12.3l-0.4-6.8l34.3-16.5l0.5,7.7l-7.7,3.5l0.8,14.2l8,2.6L390.3,577.4z M374.9,565.1
		l-0.5-8.9l-11.1,5.1L374.9,565.1z M344.2,658l20.8,28.2l5.9-4.4l-20.8-28.2L344.2,658z M460.9,606.2L449.7,573l7.5-2.6l13.1,11.2
		l3.6-16.9l7.5-2.6l11.2,33.1l-7,2.4l-7.3-21.6l-4.2,17.2l-0.2,0.1l-13.6-11l7.3,21.5L460.9,606.2z M420.9,815.2l29.2-19.2l-4.1-6.2
		l-8.8,5.8l-3.1-4.7c-2.2-3.3-4.8-5.4-8-6.4c-3.2-0.9-6.5-0.3-9.7,1.8c-3.1,2-4.9,4.6-5.5,7.8c-0.6,3.2,0.2,6.4,2.4,9.7L420.9,815.2
		z M428.4,794.4l3.2,4.9l-8.9,5.9l-3.1-4.8c-1-1.6-1.5-3.1-1.3-4.5c0.2-1.4,1-2.5,2.4-3.5c1.3-0.9,2.7-1.2,4.1-0.8
		C426.1,792,427.3,792.9,428.4,794.4z M508.2,895.7c-4-3.8-6.1-8.4-6.5-13.9l6.9-0.9c0.4,4.3,1.9,7.7,4.3,10c1.1,1,2.2,1.6,3.2,1.8
		c1,0.2,1.9-0.1,2.7-0.9c0.7-0.7,0.9-1.6,0.7-2.7c-0.2-1.1-1.1-2.8-2.5-5.2c-1-1.7-1.8-3.1-2.4-4.3c-0.5-1.2-0.9-2.4-1.1-3.8
		c-0.2-1.3-0.1-2.6,0.4-3.8c0.5-1.2,1.3-2.5,2.5-3.7c2.2-2.3,4.7-3.4,7.6-3.3c2.9,0.1,5.6,1.4,8.2,3.8c3.5,3.3,5.4,7.2,6,11.8
		l-6.8,1.6c-0.7-3.9-2-6.7-4-8.5c-1-0.9-2-1.5-3-1.6c-0.9-0.1-1.7,0.2-2.3,0.9c-0.8,0.8-1,1.8-0.7,2.8s1.2,2.9,2.8,5.5
		c2,3.2,3,6,3.2,8.3c0.2,2.3-0.8,4.6-2.8,6.7c-2.3,2.5-5,3.6-8,3.4C513.7,899.6,510.9,898.2,508.2,895.7z M677.2,636.4
		c4.6-3,9.6-4,15-3l-0.7,6.9c-4.3-0.6-7.9,0-10.7,1.8c-1.3,0.8-2.1,1.7-2.5,2.7c-0.4,1-0.3,1.9,0.3,2.8c0.5,0.8,1.4,1.3,2.4,1.3
		c1.1,0,3-0.4,5.7-1.2c1.9-0.6,3.5-1,4.7-1.3c1.3-0.2,2.6-0.3,3.9-0.2c1.3,0.1,2.5,0.5,3.6,1.3c1.1,0.8,2.1,1.9,3,3.3
		c1.7,2.7,2.2,5.4,1.4,8.2c-0.8,2.8-2.7,5.2-5.6,7c-4,2.6-8.3,3.6-12.9,3l0.1-7c3.9,0.2,7-0.4,9.2-1.8c1.2-0.7,1.9-1.6,2.2-2.5
		c0.3-0.9,0.2-1.7-0.3-2.5c-0.6-1-1.5-1.4-2.5-1.4c-1.1,0-3.1,0.5-6,1.4c-3.6,1.1-6.6,1.5-8.9,1.1c-2.3-0.4-4.2-1.8-5.8-4.3
		c-1.8-2.9-2.3-5.7-1.5-8.6C672.1,640.8,674.1,638.4,677.2,636.4z M502.7,710.2l36,12.3l-0.4-7.5l-8-2.6l-0.8-14.2l7.7-3.5l-0.5-7.7
		l-34.3,16.5L502.7,710.2z M522.8,701.2l0.5,8.9l-11.6-3.8L522.8,701.2z M1564.4,180.8l-29.3,24.3l6.6,3.6l6.4-5.5l12.5,6.7l-1,8.4
		l6.8,3.6l3.9-37.9L1564.4,180.8z M1561.5,202.6l-7.9-4.2l9.3-7.9L1561.5,202.6z M1455.7,126.5l34.9-3l0.6,7.4l-34.9,3L1455.7,126.5
		z M1507.7,258l-34.1-7.8l-1.6,7.1l22.1,5l-16.5,5.8l0,0.2l12.5,12.5l-22.3-5.1l-1.6,7.2l34.1,7.8l1.8-7.8l-12.5-11.9l16.4-5.3
		L1507.7,258z M1317.5,141.6l-1.1-35l13.7-0.4c4-0.1,7.1,0.9,9.5,3.1c2.4,2.2,3.6,5.1,3.7,8.7c0.1,3.9-1.1,7-3.6,9.2
		c-2.5,2.2-5.7,3.4-9.6,3.5l-5.6,0.2l0.3,10.5L1317.5,141.6z M1324.4,124l5.8-0.2c1.8-0.1,3.2-0.6,4.2-1.6c1-1,1.5-2.3,1.5-3.9
		c-0.1-1.7-0.6-3-1.7-3.8c-1.1-0.9-2.6-1.3-4.5-1.3l-5.7,0.2L1324.4,124z M1217.4,140.6c-4.8-2.6-9.9-3.2-15.2-1.8
		c-3.6,1-6.2,2.6-7.9,5c-1.7,2.5-2.1,5.3-1.2,8.6c0.8,2.8,2.2,4.8,4.2,5.9c2.1,1.1,5,1.6,8.8,1.7c3.1,0,5.2,0.2,6.2,0.5
		c1,0.3,1.7,1,2,2.1c0.2,0.9,0.1,1.7-0.5,2.5c-0.6,0.8-1.5,1.3-2.9,1.7c-2.6,0.7-5.7,0.3-9.3-1.1l-2.2,6.6c4.2,2,8.6,2.3,13.2,1.1
		c3.3-0.9,5.8-2.5,7.5-5c1.6-2.4,2-5.2,1.2-8.2c-0.4-1.6-1-3-1.8-4.1c-0.8-1-1.8-1.8-3-2.3c-1.3-0.5-2.5-0.8-3.8-1
		c-1.3-0.1-2.9-0.2-4.9-0.2c-2.8,0-4.7-0.2-5.8-0.6c-1-0.3-1.7-1-1.9-2c-0.3-1-0.1-1.9,0.6-2.7c0.7-0.8,1.7-1.4,3.2-1.8
		c3.3-0.9,6.9-0.4,10.8,1.5L1217.4,140.6z M1329.3,433c3.7-4.1,5.4-8.9,5.3-14.4c-0.1-3.7-1.1-6.7-3-8.9c-2-2.2-4.7-3.3-8.1-3.2
		c-2.9,0.1-5.2,1-6.7,2.7c-1.5,1.8-2.8,4.5-3.7,8.1c-0.8,3-1.4,5-1.9,5.9c-0.6,0.9-1.4,1.4-2.5,1.4c-0.9,0-1.7-0.3-2.3-1.1
		c-0.6-0.8-0.9-1.8-1-3.2c-0.1-2.7,1-5.6,3.3-8.8l-5.9-3.7c-2.9,3.6-4.3,7.8-4.2,12.6c0.1,3.5,1.1,6.3,3.1,8.4
		c2,2.1,4.5,3.2,7.7,3.1c1.7,0,3.2-0.3,4.4-0.8c1.2-0.5,2.2-1.3,3-2.4c0.8-1.1,1.4-2.3,1.9-3.4c0.4-1.2,0.9-2.8,1.3-4.7
		c0.7-2.7,1.3-4.6,1.9-5.5c0.6-0.9,1.4-1.4,2.4-1.4c1.1,0,1.9,0.4,2.5,1.2c0.6,0.9,0.9,2,1,3.5c0.1,3.4-1.3,6.8-4.1,10.1L1329.3,433
		z M1333.8,255.6l29.3-24.3l6,3.2l-3.9,37.9l-6.8-3.6l1-8.4l-12.5-6.7l-6.4,5.5L1333.8,255.6z M1352.4,248.9l7.9,4.2l1.4-12.1
		L1352.4,248.9z M1073,491.1l29.3-24.3l6,3.2l-3.9,37.9l-6.8-3.6l1-8.4l-12.5-6.7l-6.4,5.5L1073,491.1z M1091.6,484.4l7.9,4.2
		l1.4-12.1L1091.6,484.4z M1028.6,409.6l-34.9,3l0.6,7.4l34.9-3L1028.6,409.6z M1011.6,536.2l34.1,7.8l-1.8,7.8l-16.4,5.3l12.5,11.9
		l-1.8,7.8l-34.1-7.8l1.6-7.2l22.3,5.1l-12.5-12.5l0-0.2l16.5-5.8l-22.1-5L1011.6,536.2z M854.4,392.6l1.1,35l7.4-0.2l-0.3-10.5
		l5.6-0.2c3.9-0.1,7.1-1.3,9.6-3.5c2.5-2.2,3.7-5.3,3.6-9.2c-0.1-3.7-1.4-6.6-3.7-8.7c-2.4-2.2-5.5-3.2-9.5-3.1L854.4,392.6z
		 M868.2,409.8l-5.9,0.2l-0.3-10.7l5.7-0.2c1.9-0.1,3.4,0.4,4.5,1.3c1.1,0.9,1.7,2.2,1.7,3.8c0,1.6-0.4,2.9-1.5,3.9
		C871.4,409.2,870,409.8,868.2,409.8z M740.2,424.9c5.3-1.4,10.4-0.8,15.2,1.8l-2.8,6.4c-3.9-1.9-7.5-2.4-10.8-1.5
		c-1.5,0.4-2.5,1-3.2,1.8c-0.7,0.8-0.9,1.7-0.6,2.7c0.3,1,0.9,1.6,1.9,2c1,0.4,3,0.6,5.8,0.6c2,0,3.6,0.1,4.9,0.2
		c1.3,0.2,2.5,0.5,3.8,1c1.2,0.5,2.2,1.3,3,2.3c0.8,1.1,1.4,2.4,1.8,4.1c0.8,3.1,0.4,5.8-1.2,8.2c-1.6,2.4-4.1,4.1-7.5,5
		c-4.6,1.2-9,0.9-13.2-1.1l2.2-6.6c3.7,1.4,6.8,1.8,9.3,1.1c1.3-0.4,2.3-0.9,2.9-1.7c0.6-0.7,0.7-1.6,0.5-2.5c-0.3-1.1-1-1.8-2-2.1
		c-1-0.3-3.1-0.5-6.2-0.5c-3.8,0-6.7-0.6-8.8-1.7c-2.1-1.1-3.5-3-4.2-5.9c-0.9-3.3-0.5-6.2,1.2-8.6
		C733.9,427.5,736.6,425.8,740.2,424.9z M872.6,704.6c0.1,5.5-1.7,10.3-5.3,14.4l-5.5-4.3c2.8-3.4,4.1-6.7,4-10.1
		c0-1.5-0.4-2.7-1-3.5c-0.6-0.9-1.5-1.3-2.5-1.2c-1,0-1.8,0.5-2.4,1.4c-0.6,0.9-1.3,2.7-1.9,5.5c-0.5,1.9-0.9,3.5-1.4,4.7
		c-0.5,1.2-1.1,2.3-1.9,3.4c-0.8,1.1-1.8,1.9-3,2.4c-1.2,0.5-2.7,0.8-4.4,0.8c-3.2,0.1-5.7-1-7.7-3.1c-2-2.2-3-5-3.1-8.4
		c-0.1-4.8,1.3-9,4.2-12.6l5.9,3.7c-2.2,3.2-3.3,6.1-3.3,8.8c0,1.4,0.3,2.4,1,3.2c0.6,0.7,1.3,1.1,2.3,1.1c1.1,0,2-0.5,2.5-1.4
		c0.5-0.9,1.2-2.9,1.9-5.9c0.9-3.7,2.2-6.4,3.7-8.1c1.5-1.8,3.8-2.7,6.7-2.7c3.4-0.1,6.1,1,8.1,3.2
		C871.5,698,872.5,700.9,872.6,704.6z M901.1,517.3l-29.3,24.3l6.6,3.6l6.4-5.5l12.5,6.7l-1,8.4l6.8,3.6l3.9-37.9L901.1,517.3z
		 M898.2,539.1l-7.9-4.2l9.3-7.9L898.2,539.1z M1179.9,578.2l34.5,16.1l0.4-7.5l-7.7-3.4l0.7-14.2l8-2.7l0.4-7.7l-35.9,12.7
		L1179.9,578.2z M1200.9,571.4l-0.4,8.9l-11.1-5L1200.9,571.4z M1177.5,699.7l-17.6-30.2l6.4-3.7l17.6,30.2L1177.5,699.7z
		 M1273.9,596.3l7.6,34.2l7.1-1.6l-4.9-22.2l12.4,12.4l0.2,0l6-16.6l5,22.3l7.2-1.6l-7.6-34.2l-7.8,1.7l-5.4,16.4l-11.8-12.5
		L1273.9,596.3z M1250.4,818l-31.1,16l-6.3-12.2c-1.8-3.5-2.3-6.8-1.3-9.9c0.9-3.1,3-5.4,6.3-7.1c3.5-1.8,6.8-2,9.8-0.7
		c3.1,1.3,5.5,3.7,7.3,7.2l2.6,5l9.3-4.8L1250.4,818z M1231.6,819.4l-2.7-5.2c-0.8-1.6-1.9-2.7-3.3-3.1c-1.4-0.5-2.8-0.4-4.2,0.4
		c-1.5,0.8-2.4,1.8-2.8,3.2c-0.3,1.4-0.1,2.9,0.8,4.6l2.6,5.1L1231.6,819.4z M1292.5,908.9c-0.3,5.5,1.4,10.3,4.9,14.5
		c2.4,2.8,5.1,4.5,8,5c2.9,0.5,5.7-0.4,8.3-2.6c2.2-1.9,3.4-4,3.5-6.3c0.1-2.3-0.7-5.2-2.3-8.6c-1.3-2.8-2.1-4.7-2.2-5.8
		c-0.2-1.1,0.2-2,1.1-2.7c0.7-0.6,1.5-0.8,2.4-0.6c1,0.2,1.9,0.8,2.8,1.9c1.7,2,2.7,5,3,8.9l6.9-0.8c0-4.6-1.6-8.8-4.7-12.4
		c-2.2-2.6-4.8-4.2-7.7-4.6c-2.9-0.4-5.5,0.4-7.9,2.5c-1.3,1.1-2.3,2.2-2.9,3.4c-0.6,1.2-0.8,2.4-0.8,3.7c0.1,1.3,0.3,2.6,0.7,3.9
		c0.4,1.2,1,2.7,1.9,4.5c1.2,2.5,1.8,4.4,1.9,5.5c0.1,1.1-0.2,1.9-1,2.6c-0.8,0.7-1.7,0.9-2.7,0.6c-1-0.3-2-1-3-2.1
		c-2.2-2.6-3.3-6.1-3.3-10.4L1292.5,908.9z M1508.6,682.4c-5.2-1.6-10.3-1.1-15.3,1.4c-3.3,1.7-5.6,3.8-6.7,6.5
		c-1.2,2.7-1,5.6,0.5,8.7c1.3,2.6,3.1,4.3,5.3,4.9c2.3,0.6,5.2,0.6,8.9-0.2c3-0.6,5.1-0.9,6.2-0.8c1.1,0.1,1.9,0.6,2.4,1.7
		c0.4,0.8,0.4,1.7,0,2.5c-0.4,0.9-1.2,1.6-2.5,2.2c-2.4,1.2-5.5,1.5-9.4,0.8l-0.8,6.9c4.5,1.1,8.9,0.5,13.2-1.6
		c3.1-1.5,5.2-3.7,6.3-6.4c1.1-2.7,0.9-5.5-0.5-8.3c-0.8-1.5-1.6-2.7-2.6-3.6c-1-0.8-2.1-1.4-3.4-1.6c-1.3-0.2-2.6-0.3-3.9-0.2
		c-1.3,0.1-2.9,0.4-4.8,0.8c-2.8,0.6-4.7,0.8-5.8,0.6c-1.1-0.1-1.8-0.7-2.3-1.5c-0.5-1-0.5-1.9,0.1-2.8c0.5-0.9,1.4-1.7,2.8-2.4
		c3-1.5,6.7-1.7,10.9-0.7L1508.6,682.4z M1346.4,754.4l-34.5-16.1l0.3-6.8l35.9-12.7l-0.4,7.7l-8,2.7l-0.7,14.2l7.7,3.4
		L1346.4,754.4z M1332.4,740.5l0.4-8.9l-11.5,3.9L1332.4,740.5z"/>
</g>
</svg>
