<svg width="25" height="25" viewBox="0 0 25 25" fill="none" xmlns="http://www.w3.org/2000/svg">
<path fill-rule="evenodd" clip-rule="evenodd" d="M12.5 25C19.4036 25 25 19.4036 25 12.5C25 5.59644 19.4036 0 12.5 0C5.59644 0 0 5.59644 0 12.5C0 19.4036 5.59644 25 12.5 25Z" fill="#FFBC00"/>
<path fill-rule="evenodd" clip-rule="evenodd" d="M9.89061 14.6667H16.2423C16.3995 14.6667 16.5375 14.5681 16.5801 14.4249L17.9864 9.75814C18.0166 9.65754 17.9959 9.54947 17.9294 9.46587C17.8627 9.38254 17.7591 9.33332 17.6485 9.33332H9.079L8.82769 8.26111C8.79198 8.10842 8.64916 8 8.48437 8H6.35156C6.15729 8 6 8.14913 6 8.33333C6 8.51762 6.15729 8.66666 6.35156 8.66666H8.2022L9.47176 14.0833C9.09823 14.2373 8.83593 14.5898 8.83593 15C8.83593 15.5514 9.30907 16 9.89061 16H10.5876C10.0088 16.0032 9.53905 16.4506 9.53905 17C9.53905 17.5515 10.0122 18 10.5938 18C11.1754 18 11.6485 17.5515 11.6485 17C11.6485 16.4506 11.1787 16.0032 10.6001 16H15.5329C14.9542 16.0032 14.4844 16.4506 14.4844 17C14.4844 17.5515 14.9576 18 15.5391 18C16.1208 18 16.5938 17.5515 16.5938 17C16.5938 16.4506 16.1241 16.0032 15.5454 16H16.2423C16.4366 16 16.5938 15.851 16.5938 15.6667C16.5938 15.4825 16.4366 15.3334 16.2423 15.3334H9.89061C9.69698 15.3334 9.53905 15.184 9.53905 15C9.53905 14.8161 9.69698 14.6667 9.89061 14.6667Z" fill="white"/>
</svg>
